<svg width="502" height="501" viewBox="0 0 502 501" fill="none" xmlns="http://www.w3.org/2000/svg">
<path d="M432.784 56.4654C424.349 51.3248 420.523 55.6062 417.454 51.3248C414.386 47.0434 425.89 35.9324 402.841 24.8214C402.841 24.8214 401.314 0.881041 369.87 0.0217938C338.425 -0.837453 346.901 23.9622 338.465 29.9473C330.03 35.9324 327.731 26.5844 319.296 32.5102C310.86 38.4361 314.699 50.4655 307.805 52.1692C300.91 53.8729 291.691 44.4804 283.255 50.4655C274.82 56.4506 274.82 61.5765 270.994 61.5765C267.168 61.5765 259.489 58.1543 254.893 61.5765C250.297 64.9987 244.917 69.2801 244.917 69.2801H438.869C438.869 69.2801 441.22 61.5913 432.784 56.4654Z" fill="#C7C4BF"/>
<path opacity="0.5" d="M432.784 56.4654C424.349 51.3248 420.523 55.6062 417.454 51.3248C414.386 47.0434 425.89 35.9324 402.841 24.8214C402.841 24.8214 401.314 0.881041 369.87 0.0217938C338.425 -0.837453 346.901 23.9622 338.465 29.9473C330.03 35.9324 327.731 26.5844 319.296 32.5102C310.86 38.4361 314.699 50.4655 307.805 52.1692C300.91 53.8729 291.691 44.4804 283.255 50.4655C274.82 56.4506 274.82 61.5765 270.994 61.5765C267.168 61.5765 259.489 58.1543 254.893 61.5765C250.297 64.9987 244.917 69.2801 244.917 69.2801H438.869C438.869 69.2801 441.22 61.5913 432.784 56.4654Z" fill="#E0E0E0"/>
<path d="M212.834 248.655C206.91 245.055 204.213 248.048 202.061 245.055C199.909 242.063 207.986 234.241 191.832 226.433C191.832 226.433 190.756 209.619 168.664 209.011C146.572 208.404 152.51 225.826 146.585 230.033C140.66 234.241 139.053 227.633 133.128 231.841C127.203 236.048 129.887 244.448 125.051 245.648C120.216 246.848 113.733 240.241 107.781 244.448C101.83 248.655 101.857 252.255 99.1732 252.255C96.4897 252.255 91.083 249.855 87.8549 252.255C84.6268 254.655 80.854 257.663 80.854 257.663H217.139C217.139 257.663 218.759 252.255 212.834 248.655Z" fill="#E0E0E0"/>
<path opacity="0.5" d="M212.834 248.655C206.91 245.055 204.213 248.048 202.061 245.055C199.909 242.063 207.986 234.241 191.832 226.433C191.832 226.433 190.756 209.619 168.664 209.011C146.572 208.404 152.51 225.826 146.585 230.033C140.66 234.241 139.053 227.633 133.128 231.841C127.203 236.048 129.887 244.448 125.051 245.648C120.216 246.848 113.733 240.241 107.781 244.448C101.83 248.655 101.857 252.255 99.1732 252.255C96.4897 252.255 91.083 249.855 87.8549 252.255C84.6268 254.655 80.854 257.663 80.854 257.663H217.139C217.139 257.663 218.759 252.255 212.834 248.655Z" fill="#C7C4BF"/>
<path d="M381.267 498.978H465.225C463.617 487.526 457.015 489.541 456.138 471.793C455.7 462.904 463.126 451.793 462.475 440.06C461.944 430.386 453.402 420.475 452.737 409.409C452.14 399.424 459.38 388.342 458.729 377.587C458.051 367.424 449.43 357.661 448.619 347.084C447.875 336.713 455.022 325.588 454.172 315.158C453.322 304.729 444.514 295.144 443.545 284.862C442.575 274.299 449.496 262.922 448.433 252.818C447.317 242.078 438.231 232.804 436.995 222.908C435.667 211.9 442.057 200.137 440.556 190.626C438.709 178.982 428.985 170.553 426.939 161.96C423.127 145.946 423.605 130.524 419.101 129.516C414.306 128.45 413.203 143.575 409.563 160.479C407.73 168.968 398.232 177.575 396.664 189.234C395.402 198.671 402.124 210.152 401.021 221.115C400.038 230.937 391.178 240.374 390.314 251.055C389.504 261.1 396.691 272.166 395.987 282.67C395.296 292.877 386.687 302.61 386.116 312.98C385.545 323.351 392.931 334.195 392.426 344.432C391.908 354.92 383.473 364.831 383.034 374.92C382.583 385.602 390.141 396.372 389.769 406.268C389.358 417.246 381.042 427.29 380.736 436.89C380.364 448.534 388.029 459.275 387.79 468.149C387.285 487.408 379.381 483.393 379.102 498.889L381.267 498.978Z" fill="#2CAA00"/>
<path d="M417.308 160.286V494.652" stroke="black" stroke-miterlimit="10"/>
<path d="M430.42 195.337L416.75 208.508L405.564 191.871" fill="#2CAA00"/>
<path d="M430.42 195.337L416.75 208.508L405.564 191.871" stroke="black" stroke-miterlimit="10"/>
<path d="M430.42 253.544L416.75 266.699L405.564 250.078" fill="#2CAA00"/>
<path d="M430.42 253.544L416.75 266.699L405.564 250.078" stroke="black" stroke-miterlimit="10"/>
<path d="M430.42 308.269L416.75 321.44L405.564 304.803" fill="#2CAA00"/>
<path d="M430.42 308.269L416.75 321.44L405.564 304.803" stroke="black" stroke-miterlimit="10"/>
<path d="M430.42 373.409L416.75 386.564L405.564 369.943" fill="#2CAA00"/>
<path d="M430.42 373.409L416.75 386.564L405.564 369.943" stroke="black" stroke-miterlimit="10"/>
<path d="M430.42 439.23L416.75 452.386L405.564 435.764" fill="#2CAA00"/>
<path d="M430.42 439.23L416.75 452.386L405.564 435.764" stroke="black" stroke-miterlimit="10"/>
<path d="M324.079 498.978H388.893C387.645 490.089 382.557 491.689 381.879 478C381.534 471.097 387.259 462.564 386.768 453.497C386.356 446.09 379.767 438.371 379.249 429.794C378.784 422.09 384.417 413.498 383.872 405.231C383.354 397.379 376.672 389.853 376.074 381.691C375.476 373.528 381.016 365.083 380.365 357.039C379.714 348.995 372.899 341.587 372.182 333.662C371.438 325.499 376.778 316.729 375.954 308.906C375.091 300.625 368.077 293.47 367.134 285.84C366.071 277.336 371.039 268.255 369.87 260.922C368.449 251.929 360.943 245.411 359.375 238.789C356.426 226.434 356.798 214.508 353.318 213.737C349.611 212.908 348.761 224.582 345.958 237.648C344.55 244.196 337.204 250.848 335.995 259.87C335.025 267.159 340.206 276.018 339.356 284.477C338.599 292.062 331.77 299.292 331.093 307.588C330.469 315.336 336.021 323.884 335.477 331.988C334.945 339.869 328.317 347.38 327.852 355.38C327.387 363.38 333.165 371.765 332.727 379.661C332.289 387.557 325.819 395.409 325.487 403.201C325.128 411.438 330.96 419.749 330.681 427.394C330.362 435.868 323.946 443.69 323.707 451.097C323.415 460.075 329.339 468.386 329.153 475.215C328.755 490.03 322.657 486.993 322.445 498.919L324.079 498.978Z" fill="#2CAA00"/>
<path d="M351.91 237.544V495.644" stroke="black" stroke-miterlimit="10"/>
<path d="M362.019 264.596L351.471 274.759L342.836 261.914" fill="#2CAA00"/>
<path d="M362.019 264.596L351.471 274.759L342.836 261.914" stroke="black" stroke-miterlimit="10"/>
<path d="M362.019 309.514L351.471 319.677L342.836 306.847" fill="#2CAA00"/>
<path d="M362.019 309.514L351.471 319.677L342.836 306.847" stroke="black" stroke-miterlimit="10"/>
<path d="M362.019 351.765L351.471 361.928L342.836 349.099" fill="#2CAA00"/>
<path d="M362.019 351.765L351.471 361.928L342.836 349.099" stroke="black" stroke-miterlimit="10"/>
<path d="M362.019 402.046L351.471 412.209L342.836 399.364" fill="#2CAA00"/>
<path d="M362.019 402.046L351.471 412.209L342.836 399.364" stroke="black" stroke-miterlimit="10"/>
<path d="M362.019 452.86L351.471 463.008L342.836 450.178" fill="#2CAA00"/>
<path d="M362.019 452.86L351.471 463.008L342.836 450.178" stroke="black" stroke-miterlimit="10"/>
<path d="M266.305 498.282V198.76H280.479V498.282" fill="#2E353A"/>
<path d="M266.305 498.282V198.76H280.479V498.282" stroke="#2E353A" stroke-linecap="round" stroke-linejoin="round"/>
<path d="M259.225 498.282V198.76H273.399V498.282" fill="#AA0000"/>
<path d="M259.225 498.282V198.76H273.399V498.282" stroke="#2E353A" stroke-linecap="round" stroke-linejoin="round"/>
<g style="mix-blend-mode:multiply" opacity="0.3">
<path d="M273.399 198.76H259.225V234.315H273.399V198.76Z" fill="#2E353A"/>
</g>
<path d="M319.709 81.8281H214.683L260.461 207.219H365.5V132.879C365.5 126.174 364.316 119.534 362.014 113.339C359.713 107.145 356.34 101.516 352.088 96.7754C347.835 92.0347 342.787 88.2746 337.232 85.7099C331.676 83.1452 325.722 81.8262 319.709 81.8281Z" fill="#AA0000" stroke="#2E353A" stroke-linecap="round" stroke-linejoin="round"/>
<g style="mix-blend-mode:multiply" opacity="0.3">
<path d="M252.45 185.264L260.42 207.219H365.5V132.879C365.5 131.753 365.5 130.627 365.394 129.516H252.476L252.45 185.264Z" fill="black"/>
</g>
<path d="M318.937 129.516H307.885" stroke="#2E353A" stroke-linecap="round" stroke-linejoin="round"/>
<path d="M365.394 129.516H331.944" stroke="#2E353A" stroke-linecap="round" stroke-linejoin="round"/>
<path d="M214.682 81.8281C226.827 81.8281 238.474 87.2083 247.062 96.785C255.649 106.362 260.474 119.351 260.474 132.894V207.234H168.891V132.879C168.895 119.338 173.721 106.353 182.308 96.7798C190.895 87.2062 202.54 81.8281 214.682 81.8281Z" fill="#2E353A" stroke="#2E353A" stroke-linecap="round" stroke-linejoin="round"/>
<path d="M260.46 198.76H181.551V207.219H260.46V198.76Z" fill="#AA0000" stroke="#2E353A" stroke-linecap="round" stroke-linejoin="round"/>
<path d="M260.46 198.76H97.1548V207.219H260.46V198.76Z" fill="#AA0000" stroke="#2E353A" stroke-linecap="round" stroke-linejoin="round"/>
<path opacity="0.3" d="M260.46 198.76H181.551V207.219H260.46V198.76Z" fill="black"/>
<path d="M326.536 51.6063H293.763V77.28H326.536V51.6063Z" fill="#2E353A" stroke="#2E353A" stroke-linecap="round" stroke-linejoin="round"/>
<path d="M296.421 51.6063H289.341V131.605H296.421V51.6063Z" fill="#E0E0E0" stroke="#2E353A" stroke-linecap="round" stroke-linejoin="round"/>
<path d="M292.874 142.464C297.276 142.464 300.845 138.485 300.845 133.576C300.845 128.667 297.276 124.687 292.874 124.687C288.472 124.687 284.903 128.667 284.903 133.576C284.903 138.485 288.472 142.464 292.874 142.464Z" fill="#2E353A" stroke="#2E353A" stroke-linecap="round" stroke-linejoin="round"/>
<path d="M175.984 102.361C194.476 112.835 226.624 129.62 256.275 138.064" stroke="#E0E0E0" stroke-linecap="round" stroke-linejoin="round" stroke-dasharray="2 4"/>
<path d="M160.469 93.2501C160.469 93.2501 166.394 96.9834 175.985 102.42" stroke="#2E353A" stroke-linecap="round" stroke-linejoin="round" stroke-dasharray="2 4"/>
<path d="M153.812 92.7021L167.11 57.4729L70.6787 31.2363L153.812 92.7021Z" fill="#E0E0E0" stroke="#2E353A" stroke-width="1.2629" stroke-linecap="round" stroke-linejoin="round"/>
<path d="M160.295 61.7396L153.812 92.7021L70.6787 31.2363L160.295 61.7396Z" fill="#AA0000" stroke="#2E353A" stroke-width="1.2629" stroke-linecap="round" stroke-linejoin="round"/>
<path d="M160.295 61.7396L145.164 76.1986L70.6787 31.2363L160.295 61.7396Z" fill="#E0E0E0" stroke="#2E353A" stroke-width="1.2629" stroke-linecap="round" stroke-linejoin="round"/>
<path d="M167.11 57.4729L180.581 51.3693L70.6787 31.2363L167.11 57.4729Z" fill="#E0E0E0" stroke="#2E353A" stroke-width="1.2629" stroke-linecap="round" stroke-linejoin="round"/>
<path d="M135.082 87.2205L138.203 89.3538" stroke="#2E353A" stroke-linecap="round" stroke-linejoin="round"/>
<path d="M118.051 75.5763L128.506 82.7169" stroke="#2E353A" stroke-linecap="round" stroke-linejoin="round"/>
<path d="M106.308 160.138V121.931L204.32 139.501L106.308 160.138Z" fill="#E0E0E0" stroke="#2E353A" stroke-width="1.2629" stroke-linecap="round" stroke-linejoin="round"/>
<path d="M111.103 128.805L106.308 160.138L204.32 139.501L111.103 128.805Z" fill="#AA0000" stroke="#2E353A" stroke-width="1.2629" stroke-linecap="round" stroke-linejoin="round"/>
<path d="M111.104 128.805L120.018 148.672L204.321 139.501L111.104 128.805Z" fill="#E0E0E0" stroke="#2E353A" stroke-width="1.2629" stroke-linecap="round" stroke-linejoin="round"/>
<path d="M106.307 121.931L96.0249 110.465L204.319 139.501L106.307 121.931Z" fill="#E0E0E0" stroke="#2E353A" stroke-width="1.2629" stroke-linecap="round" stroke-linejoin="round"/>
<path d="M141.404 159.427L149.906 157.501" stroke="#2E353A" stroke-linecap="round" stroke-linejoin="round"/>
<path d="M111.541 166.197L132.916 161.353" stroke="#2E353A" stroke-linecap="round" stroke-linejoin="round"/>
<path d="M94.4975 157.783C94.4975 157.783 17.448 172.597 2.83517 249.633C-11.7777 326.669 65.2718 331.113 78.5562 294.077C91.8406 257.04 33.3893 242.226 20.1049 277.781C6.82049 313.336 46.6737 374.076 101.14 377.039C146.4 379.498 273.292 320.58 352.215 305.692C352.215 305.692 410.666 287.647 501 291.603" stroke="#2E353A" stroke-linecap="round" stroke-linejoin="round" stroke-dasharray="2 4"/>
<path d="M474.869 399.261H497.014" stroke="#2E353A" stroke-linecap="round" stroke-linejoin="round"/>
<path d="M474.869 435.793H497.014" stroke="#2E353A" stroke-linecap="round" stroke-linejoin="round"/>
<path d="M8.58691 434.816H472.212V400.239H8.58691" fill="#E0E0E0"/>
<path d="M8.58691 434.816H472.212V400.239H8.58691" stroke="#2E353A" stroke-linecap="round" stroke-linejoin="round"/>
<path d="M40.8145 498.518V324.565C40.8147 324.138 40.8925 323.716 41.0432 323.324C41.1939 322.932 41.4144 322.578 41.6912 322.283L53.8066 309.558C54.3522 308.989 55.0773 308.684 55.8239 308.709C56.5705 308.734 57.2779 309.087 57.7919 309.691L68.4194 322.298C68.9016 322.885 69.1714 323.65 69.1766 324.446V498.518" fill="#2E353A"/>
<path d="M40.8145 498.518V324.565C40.8147 324.138 40.8925 323.716 41.0432 323.324C41.1939 322.932 41.4144 322.578 41.6912 322.283L53.8066 309.558C54.3522 308.989 55.0773 308.684 55.8239 308.709C56.5705 308.734 57.2779 309.087 57.7919 309.691L68.4194 322.298C68.9016 322.885 69.1714 323.65 69.1766 324.446V498.518" stroke="#2E353A" stroke-linecap="round" stroke-linejoin="round"/>
<path d="M37.3735 500V324.565C37.3732 324.137 37.452 323.714 37.6051 323.321C37.7583 322.929 37.9825 322.576 38.2636 322.284L50.379 309.558C50.6483 309.275 50.9651 309.053 51.3113 308.907C51.6575 308.76 52.0262 308.691 52.3964 308.703C52.7666 308.715 53.131 308.809 53.4686 308.979C53.8063 309.148 54.1107 309.391 54.3643 309.692L64.9918 322.299C65.4795 322.882 65.7502 323.65 65.749 324.447V500" fill="#E0E0E0"/>
<path d="M37.3735 500V324.565C37.3732 324.137 37.452 323.714 37.6051 323.321C37.7583 322.929 37.9825 322.576 38.2636 322.284L50.379 309.558C50.6483 309.275 50.9651 309.053 51.3113 308.907C51.6575 308.76 52.0262 308.691 52.3964 308.703C52.7666 308.715 53.131 308.809 53.4686 308.979C53.8063 309.148 54.1107 309.391 54.3643 309.692L64.9918 322.299C65.4795 322.882 65.7502 323.65 65.749 324.447V500" stroke="#2E353A" stroke-linecap="round" stroke-linejoin="round"/>
<path d="M142.972 498.519V324.565C142.972 324.139 143.05 323.717 143.2 323.325C143.351 322.932 143.572 322.578 143.848 322.284L155.977 309.558C156.246 309.275 156.563 309.053 156.909 308.907C157.256 308.76 157.624 308.691 157.995 308.703C158.365 308.715 158.729 308.809 159.067 308.979C159.404 309.148 159.709 309.391 159.962 309.692L170.59 322.299C171.078 322.882 171.348 323.65 171.347 324.447V498.519" fill="#2E353A"/>
<path d="M142.972 498.519V324.565C142.972 324.139 143.05 323.717 143.2 323.325C143.351 322.932 143.572 322.578 143.848 322.284L155.977 309.558C156.246 309.275 156.563 309.053 156.909 308.907C157.256 308.76 157.624 308.691 157.995 308.703C158.365 308.715 158.729 308.809 159.067 308.979C159.404 309.148 159.709 309.391 159.962 309.692L170.59 322.299C171.078 322.882 171.348 323.65 171.347 324.447V498.519" stroke="#2E353A" stroke-linecap="round" stroke-linejoin="round"/>
<path d="M140.102 499.999V324.565C140.102 324.137 140.181 323.713 140.334 323.321C140.487 322.928 140.711 322.575 140.992 322.283L153.107 309.558C153.653 308.989 154.378 308.684 155.125 308.709C155.871 308.734 156.579 309.087 157.093 309.691L167.72 322.298C168.212 322.88 168.487 323.647 168.491 324.446V499.999" fill="#E0E0E0"/>
<path d="M140.102 499.999V324.565C140.102 324.137 140.181 323.713 140.334 323.321C140.487 322.928 140.711 322.575 140.992 322.283L153.107 309.558C153.653 308.989 154.378 308.684 155.125 308.709C155.871 308.734 156.579 309.087 157.093 309.691L167.72 322.298C168.212 322.88 168.487 323.647 168.491 324.446V499.999" stroke="#2E353A" stroke-linecap="round" stroke-linejoin="round"/>
<path d="M245.7 498.518V324.565C245.7 324.137 245.779 323.713 245.932 323.321C246.085 322.928 246.309 322.575 246.59 322.283L258.706 309.558C259.251 308.989 259.976 308.684 260.723 308.709C261.469 308.734 262.177 309.087 262.691 309.691L273.318 322.298C273.81 322.88 274.085 323.647 274.089 324.446V499.999" fill="#2E353A"/>
<path d="M245.7 498.518V324.565C245.7 324.137 245.779 323.713 245.932 323.321C246.085 322.928 246.309 322.575 246.59 322.283L258.706 309.558C259.251 308.989 259.976 308.684 260.723 308.709C261.469 308.734 262.177 309.087 262.691 309.691L273.318 322.298C273.81 322.88 274.085 323.647 274.089 324.446V499.999" stroke="#2E353A" stroke-linecap="round" stroke-linejoin="round"/>
<path d="M242.844 500V324.565C242.844 324.139 242.922 323.717 243.073 323.325C243.223 322.932 243.444 322.578 243.721 322.284L255.849 309.558C256.119 309.275 256.435 309.053 256.782 308.907C257.128 308.76 257.496 308.691 257.867 308.703C258.237 308.715 258.601 308.809 258.939 308.979C259.277 309.148 259.581 309.391 259.834 309.692L270.462 322.299C270.95 322.882 271.22 323.65 271.219 324.447V500" fill="#E0E0E0"/>
<path d="M242.844 500V324.565C242.844 324.139 242.922 323.717 243.073 323.325C243.223 322.932 243.444 322.578 243.721 322.284L255.849 309.558C256.119 309.275 256.435 309.053 256.782 308.907C257.128 308.76 257.496 308.691 257.867 308.703C258.237 308.715 258.601 308.809 258.939 308.979C259.277 309.148 259.581 309.391 259.834 309.692L270.462 322.299C270.95 322.882 271.22 323.65 271.219 324.447V500" stroke="#2E353A" stroke-linecap="round" stroke-linejoin="round"/>
<path d="M348.442 498.518V324.565C348.442 324.138 348.52 323.716 348.671 323.324C348.821 322.932 349.042 322.578 349.319 322.283L361.434 309.558C361.98 308.989 362.705 308.684 363.451 308.709C364.198 308.734 364.905 309.087 365.419 309.691L376.047 322.298C376.529 322.885 376.799 323.65 376.804 324.446V498.518" fill="#2E353A"/>
<path d="M348.442 498.518V324.565C348.442 324.138 348.52 323.716 348.671 323.324C348.821 322.932 349.042 322.578 349.319 322.283L361.434 309.558C361.98 308.989 362.705 308.684 363.451 308.709C364.198 308.734 364.905 309.087 365.419 309.691L376.047 322.298C376.529 322.885 376.799 323.65 376.804 324.446V498.518" stroke="#2E353A" stroke-linecap="round" stroke-linejoin="round"/>
<path d="M345.572 500V324.565C345.571 324.137 345.65 323.714 345.803 323.321C345.957 322.929 346.181 322.576 346.462 322.284L358.577 309.558C358.847 309.275 359.163 309.053 359.51 308.907C359.856 308.76 360.224 308.691 360.595 308.703C360.965 308.715 361.329 308.809 361.667 308.979C362.005 309.148 362.309 309.391 362.563 309.692L373.19 322.299C373.678 322.882 373.948 323.65 373.947 324.447V500" fill="#E0E0E0"/>
<path d="M345.572 500V324.565C345.571 324.137 345.65 323.714 345.803 323.321C345.957 322.929 346.181 322.576 346.462 322.284L358.577 309.558C358.847 309.275 359.163 309.053 359.51 308.907C359.856 308.76 360.224 308.691 360.595 308.703C360.965 308.715 361.329 308.809 361.667 308.979C362.005 309.148 362.309 309.391 362.563 309.692L373.19 322.299C373.678 322.882 373.948 323.65 373.947 324.447V500" stroke="#2E353A" stroke-linecap="round" stroke-linejoin="round"/>
<path d="M451.17 498.519V324.565C451.17 324.139 451.248 323.717 451.399 323.325C451.549 322.932 451.77 322.578 452.047 322.284L464.175 309.558C464.445 309.275 464.762 309.053 465.108 308.907C465.454 308.76 465.823 308.691 466.193 308.703C466.563 308.715 466.927 308.809 467.265 308.979C467.603 309.148 467.907 309.391 468.161 309.692L478.788 322.299C479.276 322.882 479.547 323.65 479.545 324.447V498.519" fill="#2E353A"/>
<path d="M451.17 498.519V324.565C451.17 324.139 451.248 323.717 451.399 323.325C451.549 322.932 451.77 322.578 452.047 322.284L464.175 309.558C464.445 309.275 464.762 309.053 465.108 308.907C465.454 308.76 465.823 308.691 466.193 308.703C466.563 308.715 466.927 308.809 467.265 308.979C467.603 309.148 467.907 309.391 468.161 309.692L478.788 322.299C479.276 322.882 479.547 323.65 479.545 324.447V498.519" stroke="#2E353A" stroke-linecap="round" stroke-linejoin="round"/>
<path d="M448.3 499.999V324.565C448.299 324.137 448.378 323.713 448.531 323.321C448.685 322.928 448.909 322.575 449.19 322.283L461.305 309.558C461.851 308.989 462.576 308.684 463.323 308.709C464.069 308.734 464.777 309.087 465.291 309.691L475.918 322.298C476.41 322.88 476.685 323.647 476.689 324.446V499.999" fill="#E0E0E0"/>
<path d="M448.3 499.999V324.565C448.299 324.137 448.378 323.713 448.531 323.321C448.685 322.928 448.909 322.575 449.19 322.283L461.305 309.558C461.851 308.989 462.576 308.684 463.323 308.709C464.069 308.734 464.777 309.087 465.291 309.691L475.918 322.298C476.41 322.88 476.685 323.647 476.689 324.446V499.999" stroke="#2E353A" stroke-linecap="round" stroke-linejoin="round"/>
<path d="M54.3511 309.692V322.373" stroke="#2E353A" stroke-linecap="round" stroke-linejoin="round"/>
<path d="M58.9077 316.24V346.254" stroke="#2E353A" stroke-linecap="round" stroke-linejoin="round"/>
<path d="M145.695 318.699V356.669" stroke="#2E353A" stroke-linecap="round" stroke-linejoin="round"/>
<path d="M150.092 313.795V330.328" stroke="#2E353A" stroke-linecap="round" stroke-linejoin="round"/>
<path d="M255.85 309.558V346.876" stroke="#2E353A" stroke-linecap="round" stroke-linejoin="round"/>
<path d="M262.159 312.566V367.706" stroke="#2E353A" stroke-linecap="round" stroke-linejoin="round"/>
<path d="M350.594 318.699V360.343" stroke="#2E353A" stroke-linecap="round" stroke-linejoin="round"/>
<path d="M364.874 313.795V324.21" stroke="#2E353A" stroke-linecap="round" stroke-linejoin="round"/>
<path d="M457.706 313.173V335.232" stroke="#2E353A" stroke-linecap="round" stroke-linejoin="round"/>
<path d="M469.794 315.632V379.335" stroke="#2E353A" stroke-linecap="round" stroke-linejoin="round"/>
<path d="M447.822 408.742H435.733" stroke="#2E353A" stroke-linecap="round" stroke-linejoin="round"/>
<path d="M447.822 419.157H405.524" stroke="#2E353A" stroke-linecap="round" stroke-linejoin="round"/>
<path d="M290.162 419.157H270.94" stroke="#2E353A" stroke-linecap="round" stroke-linejoin="round"/>
<path d="M189.095 419.157H169.873" stroke="#2E353A" stroke-linecap="round" stroke-linejoin="round"/>
<path d="M36.9354 413.646H17.7129" stroke="#2E353A" stroke-linecap="round" stroke-linejoin="round"/>
<path d="M36.9353 423.438H29.2437" stroke="#2E353A" stroke-linecap="round" stroke-linejoin="round"/>
<path d="M280.279 413.646H270.94" stroke="#2E353A" stroke-linecap="round" stroke-linejoin="round"/>
<path d="M178.108 425.275H168.77" stroke="#2E353A" stroke-linecap="round" stroke-linejoin="round"/>
<path d="M139.106 425.275H129.767" stroke="#2E353A" stroke-linecap="round" stroke-linejoin="round"/>
<path d="M485.164 419.157H476.928" stroke="#2E353A" stroke-linecap="round" stroke-linejoin="round"/>
<path d="M496.151 419.157H491.209" stroke="#2E353A" stroke-linecap="round" stroke-linejoin="round"/>
<path d="M65.2706 355.469C65.2706 355.469 61.9495 387.305 57.9642 419.883C53.9788 452.46 61.2853 485.793 63.2779 488.756" stroke="#2E353A" stroke-linecap="round" stroke-linejoin="round"/>
<path d="M52.1328 419.912C52.7705 413.557 53.3018 409.542 53.3018 409.542" stroke="#2E353A" stroke-linecap="round" stroke-linejoin="round"/>
<path d="M61.9364 485.052C61.9364 485.052 49.9805 482.089 49.9805 458.386C49.9805 448.653 50.5384 438.682 51.2026 430.238" stroke="#2E353A" stroke-linecap="round" stroke-linejoin="round"/>
<path d="M162.248 317.691C162.248 317.691 164.904 319.914 160.255 345.098C155.605 370.283 156.27 407.32 162.248 428.06" stroke="#2E353A" stroke-linecap="round" stroke-linejoin="round"/>
<path d="M168.889 364.357C168.889 364.357 162.247 386.579 166.897 417.69" stroke="#2E353A" stroke-linecap="round" stroke-linejoin="round"/>
<path d="M244.611 378.416C244.611 378.416 247.932 399.898 251.253 422.105C254.574 444.312 251.917 475.437 249.261 483.571C246.604 491.704 243.947 498.385 243.947 498.385" stroke="#2E353A" stroke-linecap="round" stroke-linejoin="round"/>
<path d="M257.125 487.497C254.162 497.63 250.482 485.793 250.482 485.793" stroke="#2E353A" stroke-linecap="round" stroke-linejoin="round"/>
<path d="M257.005 411.764C257.005 411.764 263.262 447.778 259.728 474.889" stroke="#2E353A" stroke-linecap="round" stroke-linejoin="round"/>
<path d="M243.282 423.616C243.282 423.616 249.924 439.171 243.946 453.986" stroke="#2E353A" stroke-linecap="round" stroke-linejoin="round"/>
<path d="M367.225 425.808C368.114 430.337 369.282 434.792 370.719 439.142" stroke="#2E353A" stroke-linecap="round" stroke-linejoin="round"/>
<path d="M372.712 348.802C368.497 363.722 365.823 379.131 364.741 394.727C364.344 402.618 364.741 410.534 365.924 418.327" stroke="#2E353A" stroke-linecap="round" stroke-linejoin="round"/>
<path d="M360.092 416.92C360.092 416.92 366.07 442.105 369.391 450.993C372.712 459.882 371.384 481.348 367.398 491.719" stroke="#2E353A" stroke-linecap="round" stroke-linejoin="round"/>
<path d="M449.735 359.913C449.735 359.913 463.019 386.579 450.399 430.268" stroke="#2E353A" stroke-linecap="round" stroke-linejoin="round"/>
<path d="M461.943 405.453C462.023 413.779 461.359 424.327 458.37 433.216C452.392 450.993 449.735 456.919 449.735 456.919" stroke="#2E353A" stroke-linecap="round" stroke-linejoin="round"/>
<path d="M461.026 391.024C461.026 391.024 461.465 394.209 461.73 399.113" stroke="#2E353A" stroke-linecap="round" stroke-linejoin="round"/>
</svg>
