<svg width="50" height="38" viewBox="0 0 50 38" fill="none" xmlns="http://www.w3.org/2000/svg">
<path d="M15.172 35.73C14.668 35.59 14.262 35.464 13.954 35.352C13.646 35.268 13.492 35.226 13.492 35.226C13.548 35.086 13.52 34.96 13.408 34.848C13.324 34.736 13.128 34.666 12.82 34.638C12.4 34.358 11.966 33.966 11.518 33.462C11.07 32.958 10.678 32.44 10.342 31.908C10.006 31.376 9.782 30.984 9.67 30.732C9.474 30.312 9.488 30.06 9.712 29.976C9.936 29.864 10.202 29.738 10.51 29.598C10.818 29.374 11.14 29.206 11.476 29.094C11.84 28.982 12.134 29.164 12.358 29.64C12.722 30.284 13.282 30.83 14.038 31.278C14.822 31.726 15.704 31.992 16.684 32.076C17.692 32.16 18.7 31.992 19.708 31.572C20.38 31.264 20.744 30.844 20.8 30.312C20.856 29.752 20.646 29.108 20.17 28.38C20.086 28.156 19.96 27.974 19.792 27.834C19.652 27.694 19.428 27.512 19.12 27.288C18.84 27.064 18.434 26.7 17.902 26.196C17.482 26 17.09 25.818 16.726 25.65C16.39 25.482 16.026 25.3 15.634 25.104C15.186 24.88 14.682 24.572 14.122 24.18C13.562 23.76 13.044 23.312 12.568 22.836C12.092 22.332 11.728 21.856 11.476 21.408C11.028 20.988 10.748 20.414 10.636 19.686C10.524 18.93 10.538 18.132 10.678 17.292C10.846 16.452 11.112 15.696 11.476 15.024C11.644 14.632 11.952 14.128 12.4 13.512C12.848 12.868 13.352 12.21 13.912 11.538C14.472 10.866 15.004 10.264 15.508 9.732C16.04 9.172 16.46 8.794 16.768 8.598C16.992 8.374 17.23 8.15 17.482 7.926C17.734 7.674 17.86 7.548 17.86 7.548C17.888 7.408 17.93 7.338 17.986 7.338C18.07 7.338 18.112 7.338 18.112 7.338C18.252 7.254 18.56 7.114 19.036 6.918C19.512 6.722 20.03 6.358 20.59 5.826C22.466 4.93 24.062 4.328 25.378 4.02C26.694 3.684 27.73 3.516 28.486 3.516C29.186 3.544 29.872 3.74 30.544 4.104C31.216 4.44 31.79 4.874 32.266 5.406C32.77 5.938 33.064 6.54 33.148 7.212C33.344 7.884 33.246 8.696 32.854 9.648C32.49 10.572 31.972 11.454 31.3 12.294C30.656 13.106 29.984 13.708 29.284 14.1C28.5 14.436 27.828 14.478 27.268 14.226C26.736 13.974 26.484 13.582 26.512 13.05C26.512 12.826 26.582 12.56 26.722 12.252C26.89 11.944 27.324 11.398 28.024 10.614C28.92 9.298 29.396 8.36 29.452 7.8C29.508 7.24 29.256 6.918 28.696 6.834C28.528 6.778 28.206 6.792 27.73 6.876C27.254 6.96 26.736 7.072 26.176 7.212C25.644 7.324 25.168 7.45 24.748 7.59C24.356 7.73 24.16 7.828 24.16 7.884C24.16 7.884 24.16 7.926 24.16 8.01C24.16 8.094 24.104 8.122 23.992 8.094C23.936 8.094 23.74 8.192 23.404 8.388C23.096 8.556 22.718 8.78 22.27 9.06C21.822 9.34 21.374 9.634 20.926 9.942C20.506 10.222 20.142 10.474 19.834 10.698C19.526 10.922 19.358 11.062 19.33 11.118C19.274 11.426 18.952 11.706 18.364 11.958C17.804 12.294 17.314 12.77 16.894 13.386C16.474 14.002 15.984 14.786 15.424 15.738C14.948 16.382 14.612 17.082 14.416 17.838C14.22 18.566 14.22 19.154 14.416 19.602C14.556 20.05 14.934 20.498 15.55 20.946C16.194 21.366 17.062 21.898 18.154 22.542C19.106 23.074 20.002 23.634 20.842 24.222C21.682 24.81 22.396 25.384 22.984 25.944C23.572 26.476 23.95 26.924 24.118 27.288C24.454 27.764 24.65 28.31 24.706 28.926C24.79 29.542 24.79 30.144 24.706 30.732C24.65 31.292 24.566 31.754 24.454 32.118C24.258 32.566 23.95 33.042 23.53 33.546C23.138 34.05 22.774 34.288 22.438 34.26C22.13 34.344 21.892 34.442 21.724 34.554C21.584 34.666 21.416 34.764 21.22 34.848C21.024 34.96 20.562 35.086 19.834 35.226C19.106 35.394 18.308 35.52 17.44 35.604C16.572 35.716 15.816 35.758 15.172 35.73ZM36.0831 32.748C35.5231 32.692 35.0751 32.552 34.7391 32.328C34.4311 32.076 34.1931 31.768 34.0251 31.404C33.8011 31.152 33.6611 30.956 33.6051 30.816C33.5771 30.676 33.5771 30.55 33.6051 30.438C33.7451 30.438 33.8711 30.438 33.9831 30.438C34.0951 30.41 34.1651 30.354 34.1931 30.27C34.1931 30.186 34.2351 30.13 34.3191 30.102C34.4311 30.074 34.5431 30.074 34.6551 30.102C35.1871 30.13 35.8311 29.948 36.5871 29.556C37.3711 29.164 38.2251 28.618 39.1491 27.918C40.0731 27.19 40.9971 26.406 41.9211 25.566C42.6491 24.614 43.1531 23.914 43.4331 23.466C43.7411 23.018 43.8951 22.682 43.8951 22.458C43.9231 22.206 43.8671 21.954 43.7271 21.702C43.6151 21.478 43.3491 21.366 42.9291 21.366C42.5091 21.366 41.8651 21.646 40.9971 22.206C39.7931 22.962 38.8271 23.662 38.0991 24.306C37.3711 24.95 36.6991 25.678 36.0831 26.49C35.8591 26.77 35.6071 27.078 35.3271 27.414C35.0751 27.722 34.8511 27.988 34.6551 28.212C34.4871 28.436 34.4031 28.548 34.4031 28.548C34.4031 28.66 34.2351 28.8 33.8991 28.968C33.5911 29.136 33.3251 29.22 33.1011 29.22C32.9891 29.164 32.8351 29.066 32.6391 28.926C32.4711 28.758 32.3591 28.548 32.3031 28.296C32.0511 28.1 31.8411 27.932 31.6731 27.792C31.5051 27.624 31.4211 27.358 31.4211 26.994C31.4211 26.77 31.4491 26.49 31.5051 26.154C31.5891 25.818 31.7011 25.384 31.8411 24.852C32.0091 24.124 32.1911 23.368 32.3871 22.584C32.5831 21.772 32.7651 21.086 32.9331 20.526C33.1291 19.938 33.2691 19.616 33.3531 19.56C33.3531 19.56 33.4091 19.434 33.5211 19.182C33.6331 18.93 33.6891 18.636 33.6891 18.3C33.7451 17.964 33.8291 17.67 33.9411 17.418C34.0811 17.166 34.1511 16.984 34.1511 16.872C34.2631 16.788 34.4311 16.452 34.6551 15.864C34.8791 15.276 35.1591 14.506 35.4951 13.554C35.4951 13.47 35.5931 13.204 35.7891 12.756C35.9851 12.28 36.2231 11.734 36.5031 11.118C36.7831 10.474 37.0631 9.816 37.3431 9.144C37.6511 8.444 37.9031 7.828 38.0991 7.296C38.4351 6.82 38.7151 6.344 38.9391 5.868C39.1911 5.364 39.4151 5.07 39.6111 4.986C39.7511 4.958 39.9891 5.014 40.3251 5.154C40.6891 5.294 41.0531 5.476 41.4171 5.7C41.7811 5.924 42.0331 6.148 42.1731 6.372C42.2571 6.512 42.2991 6.652 42.2991 6.792C42.3271 6.932 42.2711 7.17 42.1311 7.506C41.9911 7.814 41.7531 8.332 41.4171 9.06C41.0811 9.76 40.6051 10.754 39.9891 12.042C39.2051 13.722 38.5891 15.122 38.1411 16.242C37.7211 17.362 37.3711 18.328 37.0911 19.14C36.8391 19.952 36.5731 20.722 36.2931 21.45L36.0831 22.374L37.1751 21.156C37.4551 20.876 37.7491 20.61 38.0571 20.358C38.3651 20.106 38.7011 19.854 39.0651 19.602C39.2891 19.434 39.5831 19.266 39.9471 19.098C40.3391 18.902 40.7171 18.734 41.0811 18.594C41.4451 18.454 41.7111 18.37 41.8791 18.342C41.9631 18.314 42.2431 18.258 42.7191 18.174C43.2231 18.062 43.7131 18.006 44.1891 18.006C44.8051 18.006 45.3371 18.23 45.7851 18.678C46.2611 19.098 46.6811 19.616 47.0451 20.232C47.3531 20.82 47.4651 21.576 47.3811 22.5C47.2971 23.396 47.0591 24.166 46.6671 24.81C46.5271 24.922 46.3871 25.076 46.2471 25.272C46.1071 25.44 46.0371 25.58 46.0371 25.692C46.0091 25.888 45.7571 26.294 45.2811 26.91C44.8051 27.498 44.3291 28.058 43.8531 28.59C43.3491 29.122 42.7331 29.654 42.0051 30.186C41.2771 30.69 40.5491 31.152 39.8211 31.572C39.1211 31.964 38.5191 32.244 38.0151 32.412C37.7911 32.44 37.4691 32.496 37.0491 32.58C36.6291 32.636 36.3071 32.692 36.0831 32.748Z" fill="#AA0000"/>
</svg>
