<svg width="692" height="765" viewBox="0 0 692 765" fill="none" xmlns="http://www.w3.org/2000/svg">
<path d="M346 765C536.607 765 691.124 752.893 691.124 737.958C691.124 723.023 536.607 710.916 346 710.916C155.393 710.916 0.875793 723.023 0.875793 737.958C0.875793 752.893 155.393 765 346 765Z" fill="#355E3B"/>
<path d="M631.601 662.66C631.868 660.271 638.098 602.532 625.62 582.609C624.378 580.51 622.805 578.806 621.014 577.62C619.223 576.435 617.258 575.797 615.261 575.753C590.056 574.965 586.62 602.031 586.585 602.389L589.557 603.01C589.664 602.031 592.655 579.121 615.189 579.79C616.759 579.82 618.305 580.32 619.712 581.254C621.119 582.188 622.353 583.533 623.324 585.189C634.93 603.751 628.664 661.466 628.664 662.063L631.601 662.66Z" fill="#355E3B"/>
<path d="M633.114 660.033L636.122 659.889C636.122 659.364 635.125 606.737 654.438 595.867C673.378 585.237 681.904 607.119 682.242 608.051L684.93 606.235C684.841 605.972 674.837 579.957 653.281 592.165C632.064 604.085 633.061 657.739 633.114 660.033Z" fill="#355E3B"/>
<path d="M633.025 664.165C633.025 663.329 633.221 580.101 645.307 555.758C656.913 532.371 675.567 543.384 676.439 543.814L677.667 540.135C677.454 540.015 655.845 527.211 642.797 553.465C630.213 578.811 630.035 660.63 630.035 664.118L633.025 664.165Z" fill="#355E3B"/>
<path d="M611.647 577.76C611.647 577.76 622.648 583.206 619.372 596.035C616.097 608.863 581.334 630.028 581.334 630.028C581.334 630.028 566.756 612.112 580.141 582.968C593.527 553.823 611.345 568.563 611.647 577.76Z" fill="#355E3B"/>
<path d="M645.841 551.363C645.841 551.363 638.045 550.24 638.721 543.862C639.397 537.483 669.088 521.048 686.621 547.612C686.621 547.612 675.389 573.508 659.155 573.89C642.922 574.272 645.841 551.363 645.841 551.363Z" fill="#355E3B"/>
<path d="M653.94 594.052C653.94 594.052 648.6 588.223 654.367 585.38C660.134 582.538 688.721 583.326 689.006 621.213C689.006 621.213 655.773 628.643 651.626 614.19C647.479 599.737 653.94 594.052 653.94 594.052Z" fill="#355E3B"/>
<path opacity="0.2" d="M611.647 577.76C611.647 577.76 622.648 583.206 619.372 596.035C616.097 608.863 581.334 630.028 581.334 630.028C581.334 630.028 566.756 612.112 580.141 582.968C593.527 553.823 611.345 568.563 611.647 577.76Z" fill="#070707"/>
<path opacity="0.2" d="M645.841 551.363C645.841 551.363 638.045 550.24 638.721 543.862C639.397 537.483 669.088 521.048 686.621 547.612C686.621 547.612 675.389 573.508 659.155 573.89C642.922 574.272 645.841 551.363 645.841 551.363Z" fill="#070707"/>
<path opacity="0.2" d="M653.94 594.052C653.94 594.052 648.6 588.223 654.367 585.38C660.134 582.538 688.721 583.326 689.006 621.213C689.006 621.213 655.773 628.643 651.626 614.19C647.479 599.737 653.94 594.052 653.94 594.052Z" fill="#070707"/>
<path d="M605.738 739.941H657.322L662.876 664.166H600.184L605.738 739.941Z" fill="#355E3B"/>
<path opacity="0.5" d="M605.738 739.941H657.322L662.876 664.166H600.184L605.738 739.941Z" fill="white"/>
<path d="M597.425 672.503H665.635V655.781H597.425V672.503Z" fill="#355E3B"/>
<path opacity="0.2" d="M597.425 672.503H665.635V655.781H597.425V672.503Z" fill="white"/>
<path d="M547.354 685.617L496.072 678.857V582.107H475.744V678.809L424.32 685.617C421.854 685.943 419.566 687.488 417.902 689.952C416.237 692.416 415.315 695.622 415.313 698.947V709.291H556.432V698.947C556.433 695.605 555.502 692.384 553.821 689.917C552.141 687.449 549.834 685.916 547.354 685.617Z" fill="#263238"/>
<path opacity="0.2" d="M547.354 685.617L496.072 678.857V582.107H475.744V678.809L424.32 685.617C421.854 685.943 419.566 687.488 417.902 689.952C416.237 692.416 415.315 695.622 415.313 698.947V709.291H556.432V698.947C556.433 695.605 555.502 692.384 553.821 689.917C552.141 687.449 549.834 685.916 547.354 685.617Z" fill="white"/>
<path d="M420.671 739.965C428.015 739.965 433.968 731.975 433.968 722.12C433.968 712.264 428.015 704.275 420.671 704.275C413.327 704.275 407.374 712.264 407.374 722.12C407.374 731.975 413.327 739.965 420.671 739.965Z" fill="#263238"/>
<path d="M550.949 739.965C558.293 739.965 564.246 731.975 564.246 722.12C564.246 712.264 558.293 704.275 550.949 704.275C543.606 704.275 537.653 712.264 537.653 722.12C537.653 731.975 543.606 739.965 550.949 739.965Z" fill="#263238"/>
<path d="M472.255 516.748H499.578V593.025C499.578 595.642 498.804 598.151 497.425 600.001C496.047 601.851 494.177 602.891 492.227 602.891H479.607C477.657 602.891 475.787 601.851 474.409 600.001C473.03 598.151 472.255 595.642 472.255 593.025V516.748Z" fill="#263238"/>
<path opacity="0.3" d="M472.255 516.748H499.578V593.025C499.578 595.642 498.804 598.151 497.425 600.001C496.047 601.851 494.177 602.891 492.227 602.891H479.607C477.657 602.891 475.787 601.851 474.409 600.001C473.03 598.151 472.255 595.642 472.255 593.025V516.748Z" fill="white"/>
<path d="M534.502 365.556C534.502 365.556 538.382 494.555 511.611 516.748H542.174C542.174 516.748 565.848 472.817 559.155 365.556H534.502Z" fill="#263238"/>
<path opacity="0.3" d="M534.502 365.556C534.502 365.556 538.382 494.555 511.611 516.748H542.174C542.174 516.748 565.848 472.817 559.155 365.556H534.502Z" fill="white"/>
<path d="M552.569 526.638H415.651V510.656C415.651 507.488 416.589 504.45 418.258 502.21C419.927 499.97 422.191 498.712 424.551 498.712H543.669C546.029 498.712 548.293 499.97 549.962 502.21C551.631 504.45 552.569 507.488 552.569 510.656V526.638Z" fill="#263238"/>
<path d="M413.515 526.638H554.687C556.663 526.638 558.265 524.488 558.265 521.836V517.488C558.265 514.836 556.663 512.687 554.687 512.687H413.515C411.539 512.687 409.938 514.836 409.938 517.488V521.836C409.938 524.488 411.539 526.638 413.515 526.638Z" fill="#263238"/>
<path opacity="0.6" d="M413.515 526.638H554.687C556.663 526.638 558.265 524.488 558.265 521.836V517.488C558.265 514.836 556.663 512.687 554.687 512.687H413.515C411.539 512.687 409.938 514.836 409.938 517.488V521.836C409.938 524.488 411.539 526.638 413.515 526.638Z" fill="white"/>
<path d="M566.649 296.398H517.699C503.366 296.398 491.746 311.992 491.746 331.228V356.932C491.746 376.168 503.366 391.762 517.699 391.762H566.649C580.982 391.762 592.601 376.168 592.601 356.932V331.228C592.601 311.992 580.982 296.398 566.649 296.398Z" fill="#263238"/>
<path d="M369.229 191.001L359.457 156.434C359.457 156.434 363.657 151.226 360.774 145.946C357.89 140.667 339.877 125.832 336.601 128.436C333.326 131.04 326.01 140.882 329.962 146.353C333.914 151.823 351.322 160.925 351.322 160.925L359.973 206.313L369.229 191.001Z" fill="#FFBE9D"/>
<path d="M437.456 256.719C437.456 256.719 392.956 244.464 388.204 241.525C383.451 238.587 365.58 168.282 365.58 168.282L351.856 176.882C351.856 176.882 362.892 247.45 374.177 264.22C385.462 280.99 433.629 295.275 433.629 295.275L437.456 256.719Z" fill="#9B3922"/>
<path opacity="0.2" d="M433.522 295.203L432.704 294.941C430.283 294.2 422.682 291.811 413.658 288.252C399.008 282.542 380.532 273.919 374.088 264.244C362.821 247.522 351.767 176.882 351.767 176.882L365.473 168.282C365.473 168.282 383.362 238.611 388.204 241.525C393.045 244.44 437.456 256.719 437.456 256.719L433.522 295.203Z" fill="black"/>
<path d="M365.704 166.897L368.535 174.231L350.913 182.377L351.589 173.419L365.704 166.897Z" fill="#9B3922"/>
<path opacity="0.2" d="M433.861 294.224C431.404 293.746 423.697 292.146 414.477 289.446C419.728 277.263 435.107 271.004 435.107 271.004L433.861 294.224Z" fill="black"/>
<path d="M500.112 208.033C500.112 208.033 502.729 241.072 493.615 249.194C484.502 257.316 439.628 247.808 434.537 234.502C429.446 221.196 448.599 185.124 448.599 185.124L500.112 208.033Z" fill="#263238"/>
<path d="M318.57 642.761L330.282 646.559L336.21 624.868L341.585 605.136L328.253 597.516L323.127 621.452L318.57 642.761Z" fill="#E4897B"/>
<path opacity="0.2" d="M323.127 621.452L336.21 624.868L341.586 605.136L328.253 597.516L323.127 621.452Z" fill="black"/>
<path d="M324.302 610.01L340.535 618.108C340.535 618.108 383.843 472.792 392.743 472.386C401.643 471.98 492.262 527.784 514.975 496.777C537.688 465.769 504.847 390.997 504.847 390.997C504.847 390.997 450.219 380.534 446.107 397.089C445.095 401.969 444.322 406.932 443.793 411.948C443.17 417.012 442.743 421.264 442.743 421.264C441.052 420.691 386.21 401.7 364.601 421.264C342.618 441.164 324.302 610.01 324.302 610.01Z" fill="#9B3922"/>
<path opacity="0.6" d="M324.302 610.01L340.535 618.108C340.535 618.108 383.843 472.792 392.743 472.386C401.643 471.98 492.262 527.784 514.975 496.777C537.688 465.769 504.847 390.997 504.847 390.997C504.847 390.997 450.219 380.534 446.107 397.089C445.095 401.969 444.322 406.932 443.793 411.948C443.17 417.012 442.743 421.264 442.743 421.264C441.052 420.691 386.21 401.7 364.601 421.264C342.618 441.164 324.302 610.01 324.302 610.01Z" fill="white"/>
<path d="M417.68 704.752L429.339 700.763L427.097 678.284L425.014 657.691L410.596 659.435L414.334 683.443L417.68 704.752Z" fill="#E4897B"/>
<path opacity="0.2" d="M414.423 683.922L427.168 678.714L425.05 657.907L410.614 659.555L414.423 683.922Z" fill="black"/>
<path d="M347.246 610.034L323.59 599.26L322.575 612.255L340.517 620.76L347.246 610.034Z" fill="#9B3922"/>
<path d="M475.744 504.135C475.744 504.135 472.042 504.254 414.743 500.671C414.743 500.671 423.305 596.799 427.987 668.776L410.845 672.694C410.845 672.694 369.905 518.587 370.35 494.101C370.795 469.615 391.71 462.449 391.71 462.449C391.71 462.449 432.526 494.101 475.744 504.135Z" fill="#9B3922"/>
<path opacity="0.6" d="M475.744 504.135C475.744 504.135 472.042 504.254 414.743 500.671C414.743 500.671 423.305 596.799 427.987 668.776L410.845 672.694C410.845 672.694 369.905 518.587 370.35 494.101C370.795 469.615 391.71 462.449 391.71 462.449C391.71 462.449 432.526 494.101 475.744 504.135Z" fill="white"/>
<path opacity="0.1" d="M475.744 504.135C475.744 504.135 472.042 504.254 414.743 500.671C414.743 500.671 423.305 596.799 427.987 668.776L410.845 672.694C410.845 672.694 369.905 518.587 370.35 494.101C370.795 469.615 391.71 462.449 391.71 462.449C391.71 462.449 432.526 494.101 475.744 504.135Z" fill="black"/>
<path d="M430.479 661.8L406.929 665.408L411.486 677.782L430.55 674.509L430.479 661.8Z" fill="#9B3922"/>
<path opacity="0.1" d="M442.743 421.265L474.694 430.199C474.694 430.199 457.036 417.108 443.793 411.948C443.17 417.012 442.743 421.265 442.743 421.265Z" fill="black"/>
<path d="M503.53 379.603L504.847 390.998L446.107 397.089L444.558 383.592L503.53 379.603Z" fill="#263238"/>
<path opacity="0.2" d="M503.53 379.603L504.847 390.998L446.107 397.089L444.558 383.592L503.53 379.603Z" fill="black"/>
<path d="M485.003 398.694L487.907 398.293L486.387 378.451L483.483 378.851L485.003 398.694Z" fill="#9B3922"/>
<path d="M458.908 396.712L471.768 395.602L471.141 382.514L458.28 383.624L458.908 396.712Z" fill="white"/>
<path d="M448.963 400.779L451.867 400.378L450.347 380.536L447.443 380.936L448.963 400.779Z" fill="#9B3922"/>
<path opacity="0.6" d="M485.003 398.694L487.907 398.293L486.387 378.451L483.483 378.851L485.003 398.694Z" fill="white"/>
<path opacity="0.6" d="M448.963 400.779L451.867 400.378L450.347 380.536L447.443 380.936L448.963 400.779Z" fill="white"/>
<path d="M436.388 255.644C447.39 259.723 458.809 261.408 470.208 260.636C489.076 259.346 511.54 271.554 511.54 271.554L503.459 379.531L444.47 383.52C444.47 383.52 424.729 293.436 436.388 255.644Z" fill="#9B3922"/>
<path d="M445.876 194.656C445.876 194.656 449.187 142.244 481.832 161.211C522.772 185.1 490.233 248.979 470.208 235.888C450.183 222.797 445.876 194.656 445.876 194.656Z" fill="#263238"/>
<path opacity="0.2" d="M455.025 263.575L455.968 293.197L463.284 279.27C463.284 279.27 460.668 312.021 462.198 329.866C462.198 329.866 463.604 297.879 466.915 279.27L474.694 293.197L485.855 263.766C485.855 263.766 467.788 255.047 455.025 263.575Z" fill="black"/>
<path d="M465.135 269.165L482.028 262.763C471.615 253.207 476.866 231.707 476.866 231.707L460.134 239.59C460.903 242.712 461.498 245.906 461.914 249.146C463.694 263.145 458.959 264.268 458.959 264.268L465.135 269.165Z" fill="#FFBE9D"/>
<path opacity="0.2" d="M460.134 239.471C460.903 242.592 461.498 245.786 461.914 249.027C469.924 244.703 476.848 231.54 476.848 231.54L460.134 239.471Z" fill="black"/>
<path d="M471.063 172.296C456.235 167.9 449.703 177.074 445.253 197.284C439.681 222.486 440.909 241.932 460.329 241.979C486.709 242.027 495.662 179.606 471.063 172.296Z" fill="#FFBE9D"/>
<path d="M455.007 199.027C453.338 201.645 451.437 203.979 449.347 205.979C449.645 206.935 450.137 207.762 450.765 208.365C451.394 208.968 452.136 209.325 452.907 209.395L455.007 199.027Z" fill="#DE5753"/>
<path d="M464.352 200.078C464.049 201.703 464.459 203.256 465.278 203.518C466.096 203.781 466.969 202.682 467.271 201.13C467.574 199.577 467.164 197.976 466.346 197.69C465.527 197.403 464.655 198.454 464.352 200.078Z" fill="#263238"/>
<path d="M466.666 197.809L464.299 195.563C464.299 195.563 465.064 198.979 466.666 197.809Z" fill="#263238"/>
<path d="M449.364 194.775C449.062 196.399 449.471 197.952 450.29 198.215C451.109 198.478 452.07 197.379 452.284 195.826C452.497 194.273 452.177 192.673 451.358 192.386C450.539 192.1 449.667 193.151 449.364 194.775Z" fill="#263238"/>
<path d="M451.678 192.506L449.24 190.332C449.24 190.332 450.076 193.652 451.678 192.506Z" fill="#263238"/>
<path d="M472.7 192.171C472.581 192.174 472.463 192.133 472.36 192.054C472.256 191.974 472.171 191.857 472.113 191.717C471.527 190.489 470.742 189.452 469.818 188.683C468.894 187.914 467.854 187.433 466.773 187.274C466.603 187.244 466.448 187.129 466.339 186.952C466.23 186.774 466.175 186.548 466.185 186.319C466.203 186.088 466.288 185.876 466.421 185.729C466.555 185.581 466.726 185.51 466.898 185.53C468.209 185.7 469.474 186.277 470.592 187.213C471.71 188.15 472.651 189.422 473.341 190.929C473.381 191.031 473.405 191.142 473.412 191.256C473.419 191.371 473.409 191.486 473.383 191.595C473.356 191.704 473.313 191.805 473.257 191.891C473.201 191.978 473.133 192.049 473.056 192.1C472.943 192.159 472.821 192.184 472.7 192.171Z" fill="#263238"/>
<path d="M456.128 183.165C456.008 183.162 455.89 183.113 455.79 183.022C454.915 182.458 453.957 182.166 452.987 182.166C452.016 182.166 451.058 182.458 450.183 183.022C450.106 183.064 450.024 183.085 449.94 183.084C449.857 183.083 449.775 183.06 449.699 183.015C449.622 182.97 449.554 182.906 449.496 182.825C449.439 182.744 449.394 182.649 449.364 182.544C449.333 182.439 449.317 182.327 449.317 182.213C449.318 182.1 449.335 181.988 449.368 181.883C449.401 181.779 449.45 181.684 449.51 181.605C449.57 181.526 449.642 181.463 449.72 181.421C450.784 180.757 451.946 180.429 453.119 180.462C454.292 180.495 455.443 180.889 456.484 181.613C456.556 181.673 456.618 181.752 456.667 181.846C456.715 181.939 456.75 182.044 456.768 182.155C456.786 182.266 456.788 182.381 456.773 182.493C456.758 182.605 456.726 182.711 456.68 182.807C456.617 182.922 456.533 183.015 456.437 183.078C456.341 183.14 456.235 183.17 456.128 183.165Z" fill="#263238"/>
<path d="M481.725 210.613C481.725 210.613 477.489 192.219 480.621 179.916C480.621 179.916 453.921 155.096 445.876 194.656C445.876 194.656 448.848 158.297 474.463 165.081C500.077 171.866 491.693 221.817 476.082 232.806C476.082 232.806 484.324 222.104 481.725 210.613Z" fill="#263238"/>
<path d="M478.61 214.221C479.131 211.961 480.299 210.07 481.857 208.964C483.415 207.858 485.237 207.626 486.922 208.32C491.408 210.351 491.497 223.657 479.589 223.298C477.862 223.131 477.293 220.718 478.61 214.221Z" fill="#E4897B"/>
<path d="M450.219 216.944C450.615 219.383 450.877 221.858 451.002 224.349H451.963C456.395 224.851 458.567 223.107 459.635 221.053C460.146 220.032 460.463 218.859 460.561 217.637C460.636 216.947 460.636 216.247 460.561 215.558C457.704 216.879 454.668 217.36 451.661 216.968C450.806 217.039 450.219 216.944 450.219 216.944Z" fill="#263238"/>
<path d="M451.732 217.087L451.999 219.261C456.164 219.715 459.119 219.261 460.561 217.756C460.636 217.067 460.636 216.367 460.561 215.678C457.726 216.985 454.716 217.465 451.732 217.087Z" fill="white"/>
<path d="M451.963 224.469C456.395 224.971 458.567 223.227 459.635 221.172C457.954 221.025 456.267 221.276 454.651 221.913C453.577 222.363 452.636 223.258 451.963 224.469Z" fill="#DE5753"/>
<path d="M471.116 173.896C471.116 173.896 471.686 208.368 487.136 212.525C502.587 216.681 485.712 168.187 485.712 168.187C485.712 168.187 462.75 148.073 447.442 162.263C432.134 176.452 445.911 194.656 445.911 194.656C445.911 194.656 449.098 169.047 471.116 173.896Z" fill="#263238"/>
<path d="M477.008 205.453C476.903 205.452 476.803 205.401 476.723 205.31C465.758 193.748 471.17 171.627 471.223 171.412C471.263 171.262 471.345 171.139 471.451 171.068C471.557 170.997 471.679 170.983 471.793 171.03C471.904 171.084 471.994 171.194 472.044 171.338C472.094 171.481 472.1 171.645 472.06 171.794C472.06 172.009 466.809 193.294 477.275 204.378C477.318 204.432 477.351 204.497 477.375 204.569C477.398 204.641 477.41 204.718 477.41 204.796C477.41 204.875 477.398 204.952 477.375 205.024C477.351 205.096 477.318 205.161 477.275 205.214C477.246 205.277 477.207 205.331 477.161 205.372C477.114 205.413 477.063 205.441 477.008 205.453Z" fill="#263238"/>
<path d="M491.604 219.595C489.646 226.619 484.608 230.56 480.354 228.434C476.1 226.308 474.249 218.879 476.207 211.856C478.165 204.832 483.202 200.891 487.456 203.041C491.711 205.191 493.562 212.596 491.604 219.595Z" fill="#9B3922"/>
<path opacity="0.4" d="M491.604 219.595C489.646 226.619 484.608 230.56 480.354 228.434C476.1 226.308 474.249 218.879 476.207 211.856C478.165 204.832 483.202 200.891 487.456 203.041C491.711 205.191 493.562 212.596 491.604 219.595Z" fill="black"/>
<path d="M486.62 208.105C486.62 208.105 493.01 169.716 478.681 159.659C480.313 159.945 481.93 160.368 483.523 160.925C485.303 161.641 496.819 177.217 491.034 211.712L486.62 208.105Z" fill="#9B3922"/>
<path opacity="0.2" d="M486.62 208.105C486.62 208.105 493.01 169.716 478.681 159.659C480.313 159.945 481.93 160.368 483.523 160.925C485.303 161.641 496.819 177.217 491.034 211.712L486.62 208.105Z" fill="black"/>
<path d="M459.92 230.083L458.852 229.868L459.137 227.479C466.998 229.101 475.03 226.816 481.725 221.053L482.775 222.964C476.043 228.951 467.928 231.478 459.92 230.083Z" fill="#9B3922"/>
<g opacity="0.2">
<path d="M459.92 230.083L458.852 229.868L459.137 227.479C466.998 229.101 475.03 226.816 481.725 221.053L482.775 222.964C476.043 228.951 467.928 231.478 459.92 230.083Z" fill="black"/>
</g>
<path d="M490.999 218.64C489.717 223.274 486.371 225.807 483.576 224.469C480.782 223.131 479.536 218.162 480.835 213.528C482.134 208.893 485.463 206.361 488.258 207.699C491.052 209.037 492.298 214.006 490.999 218.64Z" fill="#9B3922"/>
<path d="M458.247 230.943L456.805 230.68C456.553 230.636 456.31 230.525 456.091 230.355C455.871 230.184 455.679 229.957 455.525 229.686C455.371 229.415 455.258 229.106 455.194 228.776C455.13 228.446 455.114 228.103 455.15 227.766C455.18 227.426 455.261 227.097 455.387 226.8C455.513 226.502 455.683 226.241 455.885 226.032C456.087 225.823 456.318 225.67 456.565 225.582C456.811 225.494 457.068 225.473 457.321 225.52L458.745 225.783C459.253 225.878 459.712 226.237 460.025 226.781C460.338 227.326 460.479 228.014 460.418 228.697C460.347 229.379 460.08 229.995 459.674 230.415C459.268 230.835 458.756 231.024 458.247 230.943Z" fill="#9B3922"/>
<path opacity="0.4" d="M458.247 230.943L456.805 230.68C456.553 230.636 456.31 230.525 456.091 230.355C455.871 230.184 455.679 229.957 455.525 229.686C455.371 229.415 455.258 229.106 455.194 228.776C455.13 228.446 455.114 228.103 455.15 227.766C455.18 227.426 455.261 227.097 455.387 226.8C455.513 226.502 455.683 226.241 455.885 226.032C456.087 225.823 456.318 225.67 456.565 225.582C456.811 225.494 457.068 225.473 457.321 225.52L458.745 225.783C459.253 225.878 459.712 226.237 460.025 226.781C460.338 227.326 460.479 228.014 460.418 228.697C460.347 229.379 460.08 229.995 459.674 230.415C459.268 230.835 458.756 231.024 458.247 230.943Z" fill="black"/>
<path d="M477.488 254.473L466.915 268.4L471.152 285.505L485.855 263.766L477.488 254.473Z" fill="#9B3922"/>
<path d="M462.198 257.388L463.907 268.114L458.443 283.283L455.025 263.575L462.198 257.388Z" fill="#9B3922"/>
<path d="M475.228 266.561L481.369 236.389C481.369 236.389 478.396 228.888 479.037 227.312C479.678 225.735 482.882 205.477 485.16 203.28C487.439 201.082 496.819 204.832 497.763 206.887C498.706 208.941 488.774 236.389 488.774 236.389L485.214 269.093L475.228 266.561Z" fill="#FFBE9D"/>
<path d="M511.54 271.554C528.45 294.774 494.576 347.377 475.157 345.131C455.737 342.886 475.655 247.522 475.655 247.522L488.115 250.269C488.115 250.269 483.754 291.549 485.125 294.774C486.495 297.999 505.933 263.838 511.54 271.554Z" fill="#9B3922"/>
<path opacity="0.2" d="M511.54 271.554C528.45 294.774 494.576 347.377 475.157 345.131C455.737 342.886 475.655 247.522 475.655 247.522L488.115 250.269C488.115 250.269 483.754 291.549 485.125 294.774C486.495 297.999 505.933 263.838 511.54 271.554Z" fill="black"/>
<path d="M474.694 244.535L472.86 252.419L490.18 254.473V247.593L474.694 244.535Z" fill="#9B3922"/>
<path opacity="0.6" d="M448.439 306.909H441.426C440.649 306.909 440.02 307.754 440.02 308.796V326.57C440.02 327.612 440.649 328.457 441.426 328.457H448.439C449.216 328.457 449.845 327.612 449.845 326.57V308.796C449.845 307.754 449.216 306.909 448.439 306.909Z" fill="white"/>
<path opacity="0.2" d="M448.581 308.342H440.607V322.986H448.581V308.342Z" fill="black"/>
<path d="M445.662 301.725H443.9V310.349H445.662V301.725Z" fill="#263238"/>
<path d="M299.204 673.291C300.979 672.183 302.892 671.526 304.846 671.356C304.846 671.356 311.61 666.029 318.303 645.27H325.832C327.109 645.282 328.352 645.823 329.391 646.819C330.429 647.816 331.213 649.218 331.635 650.836C331.761 651.279 331.833 651.747 331.849 652.221C331.76 654.663 331.564 657.096 331.261 659.507C330.16 667.583 328.692 675.561 326.865 683.396L325.583 682.966L327.897 667.868C328.681 662.756 324.658 667.701 322.807 672.861C320.955 678.021 318.089 683.253 309.759 680.697C300.058 677.495 296.16 675.632 299.204 673.291Z" fill="#9B3922"/>
<path d="M319.674 639.847C319.674 639.847 310.258 666.268 304.846 671.356C304.846 671.356 312.109 677.161 319.674 664.189C329.446 647.467 331.849 652.126 331.849 652.126C331.644 649.24 331.245 646.386 330.656 643.597C329.197 638.246 319.674 639.847 319.674 639.847Z" fill="#E4897B"/>
<path d="M402.835 736.238C404.373 734.611 406.115 733.365 407.98 732.559C407.98 732.559 413.604 725.225 416.435 702.937L423.75 700.548C424.992 700.164 426.292 700.302 427.473 700.943C428.654 701.584 429.66 702.697 430.354 704.131C430.554 704.529 430.71 704.964 430.817 705.421C431.173 707.787 431.417 710.181 431.547 712.588C431.889 720.753 431.859 728.938 431.458 737.098H430.141L429.731 721.714C429.571 716.482 426.563 722.574 425.655 728.187C424.747 733.801 422.914 739.75 414.37 739.917C404.42 740.06 400.29 739.487 402.835 736.238Z" fill="#9B3922"/>
<path d="M416.808 697.228C416.808 697.228 412.341 725.894 407.908 732.559C407.908 732.559 415.99 735.904 421.045 720.925C427.595 701.576 430.746 705.35 430.746 705.35C430.042 702.612 429.154 699.965 428.094 697.443C425.78 692.665 416.808 697.228 416.808 697.228Z" fill="#E4897B"/>
<path d="M582.313 119.024H520.173C515.189 119.024 511.148 124.446 511.148 131.135V166.801C511.148 173.49 515.189 178.913 520.173 178.913H582.313C587.297 178.913 591.337 173.49 591.337 166.801V131.135C591.337 124.446 587.297 119.024 582.313 119.024Z" fill="#407BFF"/>
<path d="M532.633 172.081L513.907 206.242L544.114 174.374L532.633 172.081Z" fill="#407BFF"/>
<path d="M533.327 148.956C533.331 149.658 533.179 150.345 532.891 150.93C532.602 151.515 532.191 151.971 531.709 152.242C531.227 152.513 530.696 152.585 530.183 152.449C529.671 152.313 529.199 151.976 528.83 151.48C528.46 150.984 528.209 150.352 528.108 149.664C528.007 148.976 528.061 148.263 528.262 147.616C528.464 146.969 528.804 146.417 529.24 146.031C529.676 145.644 530.188 145.44 530.71 145.445C531.404 145.445 532.07 145.815 532.561 146.473C533.051 147.132 533.327 148.025 533.327 148.956Z" fill="white"/>
<path d="M547.015 148.956C547.019 149.658 546.867 150.345 546.579 150.93C546.291 151.515 545.879 151.971 545.397 152.242C544.915 152.513 544.384 152.585 543.871 152.449C543.359 152.313 542.888 151.976 542.518 151.48C542.149 150.984 541.897 150.352 541.796 149.664C541.695 148.976 541.749 148.263 541.951 147.616C542.152 146.969 542.493 146.417 542.928 146.031C543.364 145.644 543.876 145.44 544.399 145.445C545.093 145.445 545.758 145.815 546.249 146.473C546.74 147.132 547.015 148.025 547.015 148.956Z" fill="white"/>
<path d="M560.703 148.956C560.707 149.658 560.555 150.345 560.267 150.93C559.979 151.515 559.568 151.971 559.085 152.242C558.603 152.513 558.072 152.585 557.559 152.449C557.047 152.313 556.576 151.976 556.206 151.48C555.837 150.984 555.586 150.352 555.484 149.664C555.383 148.976 555.437 148.263 555.639 147.616C555.84 146.969 556.181 146.417 556.617 146.031C557.053 145.644 557.564 145.44 558.087 145.445C558.781 145.445 559.446 145.815 559.937 146.473C560.428 147.132 560.703 148.025 560.703 148.956Z" fill="white"/>
<path d="M574.392 148.956C574.395 149.658 574.243 150.345 573.955 150.93C573.667 151.515 573.256 151.971 572.774 152.242C572.292 152.513 571.76 152.585 571.248 152.449C570.735 152.313 570.264 151.976 569.895 151.48C569.525 150.984 569.274 150.352 569.173 149.664C569.072 148.976 569.125 148.263 569.327 147.616C569.528 146.969 569.869 146.417 570.305 146.031C570.741 145.644 571.253 145.44 571.775 145.445C572.469 145.445 573.135 145.815 573.625 146.473C574.116 147.132 574.392 148.025 574.392 148.956Z" fill="white"/>
<path d="M348.979 90.7822L304.646 58.7324C303.451 57.8689 301.962 58.4684 301.318 60.0713L287.17 95.3202C286.527 96.9231 286.974 98.9225 288.168 99.7859L332.501 131.836C333.696 132.699 335.185 132.1 335.829 130.497L349.977 95.248C350.62 93.6451 350.173 91.6457 348.979 90.7822Z" fill="#407BFF"/>
<path opacity="0.7" d="M348.979 90.7822L304.646 58.7324C303.451 57.8689 301.962 58.4684 301.318 60.0713L287.17 95.3202C286.527 96.9231 286.974 98.9225 288.168 99.7859L332.501 131.836C333.696 132.699 335.185 132.1 335.829 130.497L349.977 95.248C350.62 93.6451 350.173 91.6457 348.979 90.7822Z" fill="white"/>
<path opacity="0.2" d="M300.165 62.981L313.96 97.7391C314.49 99.0632 315.3 100.147 316.288 100.853C317.277 101.558 318.399 101.855 319.514 101.705L348.367 97.8824L318.997 103.687C317.714 103.942 316.403 103.633 315.261 102.807C314.119 101.98 313.207 100.68 312.661 99.1008L300.165 62.981Z" fill="black"/>
<path d="M266.505 56.5548C266.986 43.2726 274.319 16.4933 283.237 8.29949C292.155 0.105644 286.281 11.4528 286.281 11.4528C286.281 11.4528 294.736 0.41619 299.186 0.750632C303.636 1.08508 299.186 7.91726 299.186 7.91726C299.186 7.91726 308.353 0.344523 312.572 0.750632C316.79 1.15674 312.572 7.70227 312.572 7.70227C312.572 7.70227 320.083 0.535633 323.127 3.90395C326.171 7.27226 284.163 44.5149 279.481 59.6603C274.8 74.8058 266.025 69.9564 266.505 56.5548Z" fill="#407BFF"/>
<path opacity="0.4" d="M266.505 56.5548C266.986 43.2726 274.319 16.4933 283.237 8.29949C292.155 0.105644 286.281 11.4528 286.281 11.4528C286.281 11.4528 294.736 0.41619 299.186 0.750632C303.636 1.08508 299.186 7.91726 299.186 7.91726C299.186 7.91726 308.353 0.344523 312.572 0.750632C316.79 1.15674 312.572 7.70227 312.572 7.70227C312.572 7.70227 320.083 0.535633 323.127 3.90395C326.171 7.27226 284.163 44.5149 279.481 59.6603C274.8 74.8058 266.025 69.9564 266.505 56.5548Z" fill="white"/>
<path d="M302.604 54.5481L308.211 59.3258C308.299 59.3995 308.367 59.511 308.402 59.6425C308.437 59.774 308.439 59.9176 308.406 60.0502C308.373 60.1829 308.308 60.2967 308.221 60.3734C308.133 60.45 308.03 60.4849 307.926 60.4725L302.034 59.8514L302.532 65.9191C302.547 66.0622 302.527 66.2077 302.474 66.334C302.422 66.4602 302.341 66.5603 302.243 66.6195C302.145 66.6786 302.035 66.6936 301.93 66.6621C301.825 66.6305 301.73 66.5543 301.66 66.4447L298.26 61.3325L302.604 54.5481Z" fill="#407BFF"/>
<path opacity="0.3" d="M302.604 54.5481L308.211 59.3258C308.299 59.3995 308.367 59.511 308.402 59.6425C308.437 59.774 308.439 59.9176 308.406 60.0502C308.373 60.1829 308.308 60.2967 308.221 60.3734C308.133 60.45 308.03 60.4849 307.926 60.4725L302.034 59.8514L302.532 65.9191C302.547 66.0622 302.527 66.2077 302.474 66.334C302.422 66.4602 302.341 66.5603 302.243 66.6195C302.145 66.6786 302.035 66.6936 301.93 66.6621C301.825 66.6305 301.73 66.5543 301.66 66.4447L298.26 61.3325L302.604 54.5481Z" fill="white"/>
<path d="M223.839 24.6394C223.839 24.6394 231.599 17.4728 243.33 22.1072C243.33 22.1072 246.694 42.9143 255.932 49.842C261.005 53.6403 273.412 53.3059 283.237 49.0537C294.896 43.9893 300.592 43.9893 302.71 49.842C304.829 55.6948 302.479 61.7864 293.561 64.6292C284.643 67.472 277.541 88.2552 261.397 88.518C245.252 88.7807 236.672 67.018 240.749 47.907C236.889 38.1372 231.02 30.0611 223.839 24.6394Z" fill="#407BFF"/>
<path opacity="0.5" d="M223.839 24.6394C223.839 24.6394 231.599 17.4728 243.33 22.1072C243.33 22.1072 246.694 42.9143 255.932 49.842C261.005 53.6403 273.412 53.3059 283.237 49.0537C294.896 43.9893 300.592 43.9893 302.71 49.842C304.829 55.6948 302.479 61.7864 293.561 64.6292C284.643 67.472 277.541 88.2552 261.397 88.518C245.252 88.7807 236.672 67.018 240.749 47.907C236.889 38.1372 231.02 30.0611 223.839 24.6394Z" fill="white"/>
<path d="M298.26 53.7837C298.26 53.9963 298.213 54.2042 298.125 54.381C298.037 54.5578 297.912 54.6956 297.766 54.7769C297.62 54.8583 297.459 54.8796 297.303 54.8381C297.148 54.7966 297.005 54.6942 296.893 54.5439C296.781 54.3935 296.705 54.202 296.674 53.9935C296.643 53.7849 296.659 53.5688 296.719 53.3723C296.78 53.1759 296.883 53.008 297.014 52.8899C297.146 52.7718 297.301 52.7087 297.459 52.7087C297.672 52.7087 297.876 52.822 298.026 53.0236C298.176 53.2252 298.26 53.4986 298.26 53.7837Z" fill="#263238"/>
<path d="M257.641 71.2702C248.082 74.758 226.829 73.6591 218.285 64.8203C209.741 55.9814 219.567 60.0425 219.567 60.0425C219.567 60.0425 209.154 52.6609 207.997 46.8798C206.84 41.0987 213.123 44.6343 213.123 44.6343C213.123 44.6343 204.935 35.2938 203.867 29.7993C202.799 24.3049 208.78 27.6493 208.78 27.6493C208.78 27.6493 201.322 20.2916 202.835 15.3466C204.348 10.4017 243.668 52.5414 255.825 53.8553C267.983 55.1692 267.324 67.7347 257.641 71.2702Z" fill="#407BFF"/>
<path opacity="0.4" d="M257.641 71.2702C248.082 74.758 226.829 73.6591 218.285 64.8203C209.741 55.9814 219.567 60.0425 219.567 60.0425C219.567 60.0425 209.154 52.6609 207.997 46.8798C206.84 41.0987 213.123 44.6343 213.123 44.6343C213.123 44.6343 204.935 35.2938 203.867 29.7993C202.799 24.3049 208.78 27.6493 208.78 27.6493C208.78 27.6493 201.322 20.2916 202.835 15.3466C204.348 10.4017 243.668 52.5414 255.825 53.8553C267.983 55.1692 267.324 67.7347 257.641 71.2702Z" fill="white"/>
<path d="M194.985 13.1489C194.915 13.1721 194.841 13.1721 194.771 13.1489C193.116 12.3605 191.425 11.62 189.716 10.9272C189.547 10.8556 189.406 10.6979 189.323 10.4879C189.239 10.2779 189.221 10.0325 189.271 9.80444C189.324 9.57767 189.442 9.38806 189.598 9.27637C189.755 9.16469 189.938 9.13986 190.108 9.20722C191.888 9.9 193.543 10.6644 195.216 11.5961C195.365 11.6644 195.491 11.8023 195.571 11.9845C195.651 12.1668 195.679 12.3815 195.651 12.5896C195.623 12.7977 195.541 12.9854 195.419 13.1187C195.296 13.252 195.142 13.3221 194.985 13.3161V13.1489Z" fill="#407BFF"/>
<path d="M87.4016 207.054C87.2252 207.054 87.0558 206.962 86.9295 206.797C86.8031 206.631 86.7298 206.407 86.7252 206.17C86.7251 205.933 86.7939 205.706 86.917 205.536C87.04 205.367 87.2075 205.269 87.3838 205.262C90.9248 205.195 94.4555 204.731 97.9392 203.877C98.1137 203.835 98.2935 203.886 98.44 204.02C98.5864 204.154 98.6879 204.36 98.7224 204.593C98.7404 204.71 98.7407 204.83 98.7234 204.946C98.7061 205.062 98.6715 205.173 98.6217 205.271C98.5719 205.369 98.5078 205.453 98.4333 205.517C98.3589 205.581 98.2756 205.625 98.1884 205.645C94.6285 206.519 91.0202 206.99 87.4016 207.054ZM76.7216 206.29C73.1297 205.775 69.5636 204.978 66.0416 203.901C65.8673 203.849 65.7152 203.707 65.6185 203.506C65.5218 203.304 65.4883 203.06 65.5254 202.826C65.5677 202.596 65.6751 202.398 65.8246 202.273C65.9742 202.148 66.1542 202.106 66.3264 202.157C69.7927 203.205 73.2984 204.002 76.8284 204.546C76.9867 204.58 77.1307 204.69 77.2345 204.854C77.3384 205.018 77.3954 205.226 77.3954 205.441C77.3954 205.657 77.3384 205.865 77.2345 206.029C77.1307 206.193 76.9867 206.302 76.8284 206.337L76.7216 206.29ZM108.352 201.512C108.224 201.513 108.099 201.463 107.991 201.37C107.884 201.277 107.799 201.143 107.747 200.986C107.709 200.878 107.687 200.761 107.683 200.642C107.68 200.523 107.694 200.404 107.726 200.292C107.757 200.18 107.806 200.079 107.867 199.993C107.929 199.907 108.003 199.838 108.085 199.792C111.318 197.921 114.319 195.4 116.985 192.315C117.121 192.175 117.292 192.11 117.463 192.133C117.633 192.156 117.791 192.265 117.904 192.438C118.017 192.611 118.077 192.835 118.071 193.065C118.066 193.294 117.996 193.513 117.875 193.676C115.102 196.869 111.988 199.486 108.637 201.44C108.539 201.513 108.429 201.554 108.317 201.56L108.352 201.512ZM55.86 199.887C55.7898 199.911 55.7165 199.911 55.6464 199.887C52.2644 198.382 48.8646 196.615 45.5716 194.68C45.4257 194.568 45.316 194.387 45.264 194.172C45.2119 193.958 45.2213 193.725 45.2901 193.519C45.359 193.314 45.4825 193.15 45.6365 193.059C45.7906 192.969 45.9641 192.959 46.1234 193.031C49.363 194.942 52.7094 196.686 56.0736 198.191C56.2401 198.272 56.3763 198.438 56.4529 198.652C56.5294 198.867 56.5402 199.113 56.483 199.338C56.4327 199.503 56.3462 199.644 56.235 199.742C56.1238 199.84 55.993 199.891 55.86 199.887ZM36.28 188.277C36.1755 188.32 36.064 188.32 35.9596 188.277C32.7734 185.889 29.6762 183.309 26.7926 180.609C26.7213 180.542 26.6606 180.456 26.614 180.357C26.5673 180.258 26.5357 180.148 26.5208 180.033C26.5059 179.917 26.5081 179.799 26.5273 179.685C26.5464 179.571 26.5821 179.463 26.6324 179.367C26.6826 179.271 26.7464 179.19 26.8202 179.127C26.8939 179.065 26.976 179.022 27.062 179.002C27.1479 178.982 27.236 178.985 27.3211 179.011C27.4062 179.036 27.4867 179.084 27.558 179.152C30.406 181.804 33.4498 184.36 36.6182 186.725C36.6948 186.782 36.7622 186.859 36.8164 186.951C36.8706 187.044 36.9105 187.15 36.9337 187.263C36.9569 187.377 36.963 187.496 36.9516 187.612C36.9402 187.729 36.9116 187.841 36.8674 187.943C36.7921 188.098 36.6842 188.219 36.5574 188.291C36.4306 188.364 36.2907 188.384 36.1554 188.349L36.28 188.277ZM124.283 182.807C124.179 182.849 124.067 182.849 123.963 182.807C123.886 182.75 123.819 182.673 123.765 182.58C123.71 182.488 123.671 182.381 123.647 182.268C123.624 182.155 123.618 182.036 123.629 181.919C123.641 181.803 123.669 181.69 123.714 181.589C124.265 180.299 124.782 178.961 125.244 177.575C126.235 174.65 127.01 171.602 127.558 168.474C127.605 168.242 127.715 168.044 127.868 167.919C128.02 167.794 128.203 167.754 128.377 167.805C128.549 167.867 128.695 168.016 128.785 168.222C128.875 168.428 128.901 168.672 128.858 168.904C128.277 172.135 127.473 175.286 126.455 178.316C125.974 179.749 125.44 181.159 124.871 182.496C124.795 182.649 124.686 182.768 124.559 182.836C124.432 182.904 124.292 182.919 124.159 182.879L124.283 182.807ZM18.7292 171.77C18.5725 171.767 18.4215 171.691 18.302 171.555C15.5912 168.342 13.0514 164.877 10.7014 161.188C10.5785 161.018 10.5098 160.791 10.5098 160.554C10.5098 160.318 10.5785 160.091 10.7014 159.921C10.8247 159.758 10.9909 159.666 11.1642 159.666C11.3374 159.666 11.5037 159.758 11.627 159.921C13.9345 163.534 16.4266 166.926 19.0852 170.074C19.208 170.244 19.2768 170.471 19.2768 170.707C19.2768 170.944 19.208 171.171 19.0852 171.34C19.0411 171.47 18.9743 171.583 18.8907 171.67C18.807 171.757 18.7089 171.816 18.6046 171.842L18.7292 171.77ZM129.41 155.191C129.322 155.191 129.234 155.168 129.153 155.122C129.072 155.076 128.999 155.009 128.937 154.924C128.876 154.84 128.828 154.739 128.796 154.629C128.764 154.519 128.749 154.402 128.751 154.284C128.725 149.533 128.398 144.794 127.772 140.118C127.741 139.883 127.779 139.642 127.879 139.446C127.979 139.249 128.132 139.113 128.306 139.067C128.482 139.031 128.662 139.089 128.808 139.226C128.954 139.364 129.055 139.572 129.089 139.807C129.73 144.585 130.063 149.429 130.086 154.284C130.086 154.524 130.015 154.755 129.888 154.926C129.761 155.096 129.589 155.191 129.41 155.191ZM125.85 126.859C125.706 126.857 125.566 126.794 125.45 126.678C125.335 126.562 125.25 126.399 125.209 126.214C124.301 122.034 123.18 117.591 121.809 112.622C121.775 112.511 121.758 112.391 121.76 112.271C121.761 112.151 121.781 112.033 121.817 111.923C121.854 111.814 121.907 111.715 121.973 111.634C122.039 111.553 122.116 111.491 122.201 111.451C122.366 111.373 122.548 111.384 122.707 111.482C122.866 111.58 122.991 111.758 123.055 111.977C124.443 116.993 125.565 121.532 126.49 125.689C126.541 125.917 126.522 126.162 126.439 126.372C126.356 126.582 126.214 126.74 126.045 126.812L125.85 126.859ZM118.48 99.7456C118.357 99.7469 118.236 99.7002 118.131 99.6112C118.027 99.5222 117.944 99.3946 117.893 99.2439C116.754 95.4217 115.205 91.0262 113.585 86.3679V86.129C113.539 85.9208 113.55 85.6971 113.616 85.4987C113.682 85.3003 113.799 85.1402 113.945 85.0477C114.092 84.9552 114.258 84.9363 114.414 84.9944C114.57 85.0526 114.706 85.1839 114.796 85.3646V85.6035C116.433 90.3812 117.964 94.7051 119.103 98.4556C119.175 98.6807 119.178 98.9348 119.112 99.1628C119.045 99.3908 118.914 99.5744 118.747 99.674L118.48 99.7456ZM109.58 73.468C109.449 73.4735 109.32 73.4265 109.209 73.3329C109.098 73.2392 109.01 73.1033 108.957 72.9424C107.355 67.9497 106.074 63.5303 105.059 59.4453C105.002 59.2203 105.013 58.9741 105.089 58.7597C105.166 58.5453 105.302 58.3797 105.469 58.2986C105.639 58.2229 105.824 58.2408 105.984 58.3482C106.144 58.4557 106.266 58.6441 106.323 58.8719C107.32 62.9091 108.584 67.2808 110.186 72.2258C110.221 72.3338 110.239 72.4501 110.24 72.5679C110.241 72.6857 110.224 72.8025 110.191 72.9116C110.158 73.0206 110.109 73.1197 110.047 73.2029C109.985 73.2862 109.911 73.3519 109.83 73.3963C109.77 73.481 109.697 73.5464 109.616 73.5874L109.58 73.468ZM103.066 46.0915C102.906 46.0885 102.753 46.0102 102.632 45.8704C102.512 45.7305 102.432 45.5381 102.407 45.327C102.101 42.7673 101.947 40.1793 101.944 37.587C101.929 35.271 102.084 32.9586 102.407 30.6832C102.458 30.4713 102.566 30.2921 102.709 30.1797C102.853 30.0674 103.022 30.0298 103.185 30.0741C103.347 30.1183 103.492 30.2414 103.592 30.4198C103.691 30.5982 103.738 30.8195 103.724 31.0415C103.416 33.1985 103.267 35.3909 103.279 37.587C103.285 40.091 103.434 42.5907 103.724 45.0642C103.746 45.2973 103.701 45.5325 103.598 45.723C103.496 45.9135 103.344 46.0451 103.172 46.0915H103.066ZM107.711 18.9538C107.557 18.9595 107.405 18.8918 107.284 18.7627C107.161 18.5932 107.093 18.3661 107.093 18.1296C107.093 17.8932 107.161 17.6661 107.284 17.4966C109.674 13.7498 112.581 10.6591 115.846 8.39496C116.002 8.28354 116.185 8.25865 116.354 8.32563C116.524 8.39262 116.667 8.54614 116.754 8.7533C116.831 8.96686 116.844 9.21184 116.791 9.43824C116.738 9.66464 116.623 9.85542 116.469 9.97163C113.36 12.1293 110.592 15.074 108.317 18.6432C108.258 18.7752 108.174 18.8843 108.074 18.9598C107.974 19.0352 107.862 19.0743 107.747 19.0732L107.711 18.9538ZM179.481 7.24831H179.339C175.921 6.29276 172.379 5.48054 168.801 4.85944C168.714 4.84477 168.63 4.80704 168.555 4.74844C168.479 4.68984 168.412 4.61155 168.359 4.51814C168.306 4.42473 168.268 4.31808 168.246 4.20441C168.224 4.09074 168.219 3.97234 168.231 3.85611C168.242 3.7396 168.27 3.62717 168.314 3.52541C168.358 3.42364 168.416 3.33456 168.486 3.2634C168.555 3.19223 168.635 3.14039 168.719 3.1109C168.804 3.08142 168.892 3.07489 168.979 3.09167C172.539 3.71278 176.099 4.525 179.659 5.48055C179.819 5.52989 179.959 5.6553 180.055 5.83351C180.151 6.01172 180.196 6.23061 180.181 6.44952C180.165 6.66843 180.092 6.87249 179.973 7.02379C179.854 7.1751 179.698 7.26337 179.534 7.27221L179.481 7.24831ZM126.081 5.21777C125.994 5.23032 125.907 5.21987 125.824 5.18704C125.74 5.15422 125.662 5.09966 125.594 5.02646C125.527 4.95325 125.47 4.86285 125.429 4.76042C125.387 4.65798 125.361 4.54551 125.351 4.42944C125.342 4.31337 125.35 4.19596 125.374 4.08392C125.399 3.97188 125.439 3.8674 125.494 3.77645C125.548 3.6855 125.616 3.60985 125.692 3.55384C125.768 3.49783 125.852 3.46254 125.939 3.44999C129.454 2.39159 133.024 1.69679 136.619 1.37168C136.795 1.35848 136.969 1.43859 137.102 1.59487C137.235 1.75115 137.317 1.97117 137.331 2.20778C137.338 2.32582 137.327 2.4446 137.3 2.5571C137.272 2.66959 137.228 2.7735 137.17 2.86263C137.112 2.95176 137.041 3.02431 136.961 3.07596C136.882 3.12762 136.796 3.15734 136.708 3.16334C133.173 3.47008 129.661 4.14902 126.206 5.19388L126.081 5.21777ZM158.121 3.54555C155.024 3.25888 151.339 2.94833 147.441 2.85277C147.265 2.84654 147.097 2.74817 146.974 2.5786C146.851 2.40903 146.782 2.18168 146.782 1.945C146.782 1.82689 146.8 1.70997 146.834 1.60114C146.868 1.49232 146.918 1.3938 146.982 1.31141C147.045 1.22901 147.119 1.16441 147.201 1.12142C147.283 1.07843 147.371 1.05792 147.459 1.06111C151.393 1.18056 155.113 1.46723 158.139 1.75389C158.227 1.75989 158.313 1.78961 158.393 1.84126C158.472 1.89292 158.543 1.96546 158.601 2.0546C158.659 2.14373 158.703 2.24764 158.731 2.36013C158.759 2.47262 158.769 2.59141 158.762 2.70944C158.775 2.92515 158.73 3.13997 158.635 3.31518C158.541 3.49038 158.402 3.61444 158.246 3.665L158.121 3.54555Z" fill="#407BFF"/>
<path d="M4.88076 149.721C4.76139 149.724 4.64368 149.683 4.54021 149.603C4.43675 149.523 4.35142 149.407 4.29336 149.267C3.39318 147.17 2.59065 145 1.89036 142.769C1.85543 142.661 1.83694 142.545 1.83598 142.427C1.83502 142.309 1.85161 142.193 1.88477 142.083C1.91794 141.974 1.96701 141.875 2.0291 141.792C2.0912 141.709 2.16507 141.643 2.24636 141.599C2.4095 141.511 2.5918 141.511 2.75462 141.6C2.91745 141.69 3.04798 141.86 3.11856 142.077C3.80593 144.237 4.58446 146.342 5.45036 148.383C5.51686 148.516 5.55438 148.671 5.55867 148.832C5.56296 148.992 5.53386 149.15 5.47465 149.289C5.41544 149.428 5.32848 149.542 5.22355 149.619C5.11862 149.695 4.9999 149.73 4.88076 149.721Z" fill="#407BFF"/>
<path opacity="0.1" d="M219.282 317.802L189.538 318.543H219.371L219.282 317.802Z" fill="black"/>
<path d="M264.387 356.741L266.131 347.831H338.328L371.561 352.298L372.825 356.741H264.387Z" fill="#263238"/>
<path opacity="0.4" d="M338.328 347.831V356.741H264.387L266.131 347.831H338.328Z" fill="black"/>
<path d="M323.821 305.189C323.918 306.269 323.841 307.365 323.596 308.402C323.351 309.439 322.943 310.394 322.4 311.202C321.857 312.01 321.191 312.652 320.448 313.086C319.704 313.52 318.9 313.735 318.09 313.717H207.516C205.787 313.667 204.131 312.774 202.856 311.204C201.582 309.635 200.777 307.497 200.592 305.189L194.024 210.183C193.952 209.256 194.001 208.318 194.166 207.412C194.473 205.744 195.193 204.265 196.209 203.219C197.224 202.173 198.475 201.621 199.755 201.655H310.4C312.129 201.706 313.785 202.599 315.059 204.168C316.334 205.738 317.139 207.876 317.324 210.183L323.821 305.189Z" fill="#263238"/>
<path opacity="0.4" d="M317.698 313.717H207.516C205.787 313.667 204.131 312.774 202.856 311.204C201.582 309.635 200.777 307.497 200.592 305.189L194.024 210.183C193.952 209.256 194.001 208.318 194.166 207.412H304.348C306.077 207.463 307.733 208.356 309.007 209.925C310.282 211.495 311.087 213.633 311.272 215.941L317.84 310.946C317.911 311.874 317.863 312.811 317.698 313.717Z" fill="black"/>
<path d="M224.054 226.008C222.909 225.933 221.776 226.407 220.808 227.368C220.481 227.685 220.184 228.071 219.924 228.515C219.064 230.034 217.528 232.967 218.141 237.555C218.753 242.144 220.643 242.774 221.542 242.926C222.441 243.078 228.597 240.336 228.597 240.336C228.597 240.336 230.833 237.365 230.055 233.46C229.341 230.11 227.358 226.198 224.054 226.008Z" fill="#9B3922"/>
<path d="M221.109 241.559C221.109 241.559 221.333 244.013 222.12 244.598C222.907 245.183 224.375 245.107 225.522 244.666C226.668 244.225 228.321 243.223 228.515 241.863C228.678 240.804 228.644 239.694 228.418 238.664C227.793 238.118 227.101 237.782 226.388 237.679C225.675 237.575 224.956 237.707 224.278 238.064C222.984 238.585 221.857 239.828 221.109 241.559Z" fill="#F5F5F5"/>
<g opacity="0.4">
<path d="M226.11 229.844C226.251 230.73 226.222 231.662 226.025 232.522C225.829 233.382 225.473 234.132 225.004 234.676C224.535 235.22 223.973 235.534 223.389 235.579C222.806 235.624 222.227 235.398 221.726 234.929C221.225 234.459 220.824 233.768 220.574 232.943C220.324 232.117 220.236 231.194 220.321 230.291C220.406 229.387 220.661 228.544 221.053 227.866C221.445 227.189 221.957 226.709 222.524 226.486C223.284 226.19 224.088 226.377 224.761 227.006C225.433 227.636 225.918 228.656 226.11 229.844Z" fill="white"/>
</g>
<g opacity="0.4">
<path d="M218.651 239.872C219.223 238.766 219.521 237.374 219.491 235.952C219.422 234.559 219.032 233.253 218.393 232.275C218.079 233.781 217.969 235.372 218.073 236.947C218.15 237.969 218.346 238.961 218.651 239.872Z" fill="white"/>
</g>
<g opacity="0.4">
<path d="M230.201 235.352C229.363 234.802 228.681 233.795 228.282 232.518C227.903 231.315 227.835 229.931 228.092 228.651C228.786 229.715 229.354 230.962 229.769 232.336C230.342 234.456 230.201 235.352 230.201 235.352Z" fill="white"/>
</g>
<path d="M241.728 255.453H264.601L258.513 343.339L294.683 350.626V356.741H218.499V350.626L234.109 343.339L241.728 255.453Z" fill="#263238"/>
<path opacity="0.1" d="M264.601 255.453L247.655 355.355L234.109 354.806L241.728 255.453H264.601Z" fill="white"/>
<path d="M264.494 739.941H253.6L234.002 373.845H248.474L264.494 739.941Z" fill="#263238"/>
<path opacity="0.4" d="M264.512 739.941H253.6L234.964 392.049L234.002 374.443H248.474L249.257 392.049L264.512 739.941Z" fill="white"/>
<path opacity="0.2" d="M249.257 391.165H234.964L234.002 374.443H248.474L249.257 391.165Z" fill="black"/>
<path d="M344.523 739.941H333.629L331.849 373.845H346.303L344.523 739.941Z" fill="#263238"/>
<path opacity="0.5" d="M346.32 374.443L346.036 433.52L344.54 739.941H333.629L332.134 433.52L331.849 374.443H346.32Z" fill="white"/>
<path opacity="0.2" d="M346.32 374.443L346.036 434.165H332.134L331.849 374.443H346.32Z" fill="black"/>
<path d="M460.294 739.941H449.4L429.802 373.845H444.274L460.294 739.941Z" fill="#263238"/>
<path opacity="0.5" d="M460.312 739.941H449.4L430.764 392.049L429.802 374.443H444.274L445.057 392.049L460.312 739.941Z" fill="white"/>
<path opacity="0.2" d="M445.057 391.165H430.764L429.802 374.443H444.274L445.057 391.165Z" fill="black"/>
<path d="M139.751 739.941H128.858L144.878 373.845H159.349L139.751 739.941Z" fill="#263238"/>
<path opacity="0.5" d="M159.349 374.443L158.388 392.049L139.751 739.941H128.858L144.095 392.049L144.878 374.443H159.349Z" fill="white"/>
<path opacity="0.2" d="M144.878 374.443H159.349L158.388 391.165H144.095L144.878 374.443Z" fill="black"/>
<path d="M133.415 364.72H455.737V377.883C455.737 378.56 455.637 379.231 455.444 379.857C455.251 380.483 454.968 381.052 454.611 381.531C454.254 382.01 453.83 382.39 453.363 382.65C452.897 382.909 452.397 383.043 451.892 383.043H137.259C136.24 383.043 135.262 382.499 134.541 381.531C133.82 380.564 133.415 379.251 133.415 377.883V364.72Z" fill="#407BFF"/>
<path opacity="0.6" d="M133.415 364.72H455.737V377.883C455.737 378.56 455.637 379.231 455.444 379.857C455.251 380.483 454.968 381.052 454.611 381.531C454.254 382.01 453.83 382.39 453.363 382.65C452.897 382.909 452.397 383.043 451.892 383.043H137.259C136.24 383.043 135.262 382.499 134.541 381.531C133.82 380.564 133.415 379.251 133.415 377.883V364.72Z" fill="white"/>
<path opacity="0.2" d="M455.737 364.696H133.415V373.869H455.737V364.696Z" fill="white"/>
<path d="M462.501 367.109H126.651C125.631 367.109 124.653 366.565 123.932 365.597C123.211 364.63 122.806 363.317 122.806 361.949C122.806 360.578 123.21 359.263 123.931 358.292C124.651 357.32 125.629 356.771 126.651 356.765H462.501C463.522 356.771 464.5 357.32 465.221 358.292C465.941 359.263 466.346 360.578 466.346 361.949C466.346 363.317 465.941 364.63 465.22 365.597C464.499 366.565 463.521 367.109 462.501 367.109Z" fill="white"/>
</svg>
